<?xml version="1.0" encoding="UTF-8"?>
<!-- Generator: visioncortex VTracer 0.6.3 -->
<svg version="1.1" xmlns="http://www.w3.org/2000/svg" width="1280" height="1280">
<path d="M0 0 C1.05 0 2.09 0 3.17 0.01 C21.59 0.06 39.81 0.64 57.37 6.78 C59.66 7.55 61.93 8.04 64.31 8.44 C69.17 9.36 73.67 10.75 78.31 12.44 C79.48 12.85 80.64 13.26 81.84 13.68 C124.89 29.15 164.11 57.35 192.31 93.44 C193.08 94.37 193.84 95.31 194.63 96.28 C223.06 131.79 237.56 173.98 244.31 218.44 C245.22 217.94 246.14 217.44 247.07 216.93 C251.97 214.67 255.81 215.53 260.68 217.3 C269.02 220.85 269.02 220.85 271.31 223.44 C272 226.19 272 226.19 271.31 229.44 C269.95 230.99 269.95 230.99 268.2 232.61 C264.21 236.45 260.85 240.6 257.5 245 C256.93 245.73 256.36 246.46 255.77 247.21 C252.74 251.16 250.53 254.53 249.31 259.44 C253.84 260.72 257.65 261.2 262.31 260.44 C267.54 257.2 271.41 252.1 275.31 247.44 C276.56 246.06 277.81 244.69 279.06 243.31 C279.83 242.4 279.83 242.4 280.61 241.47 C281.96 239.85 283.37 238.28 284.8 236.72 C285.65 235.76 286.5 234.8 287.38 233.81 C288.17 232.93 288.97 232.05 289.79 231.15 C291.69 228.48 291.69 228.48 290.62 225.29 C290.19 224.35 289.76 223.41 289.31 222.44 C288.98 221.45 288.65 220.46 288.31 219.44 C291.22 216.25 293.28 215.5 297.66 215.23 C305.71 215.08 313.53 215.52 321.5 216.75 C322.29 216.87 323.08 216.99 323.89 217.11 C330.44 218.2 335.47 220.36 340.44 224.88 C341.45 225.79 341.45 225.79 342.48 226.73 C349.44 233.22 349.44 233.22 349.88 238.5 C349.87 242.99 348.43 244.98 345.44 248.25 C344.72 248.96 344 249.67 343.26 250.39 C340.9 252.88 339.31 254.95 339.31 258.44 C339.98 258.29 340.64 258.15 341.32 258 C342.21 257.81 343.09 257.63 344 257.44 C344.87 257.25 345.74 257.07 346.64 256.88 C349.31 256.44 349.31 256.44 351.91 256.58 C355.08 256.39 355.91 255.42 358.06 253.12 C358.75 252.4 359.43 251.67 360.14 250.91 C363.21 247.42 366.15 243.83 369.06 240.2 C372.35 236.17 375.82 232.3 379.31 228.44 C383.11 229.44 386.03 230.25 389.31 232.44 C389.31 235.44 389.31 235.44 387.38 237.5 C386.92 237.93 386.47 238.36 386 238.8 C379.82 244.8 374.31 251.43 369.31 258.44 C370.69 259.11 370.69 259.11 372.1 259.8 C384.67 266.12 397.37 274.36 406.31 285.44 C406.31 286.1 406.31 286.76 406.31 287.44 C406.97 287.44 407.63 287.44 408.31 287.44 C410.77 292.94 410.73 297.68 409.31 303.44 C407.55 307.58 405.52 311.52 403.31 315.44 C402.65 315.44 401.99 315.44 401.31 315.44 C401.06 316.02 400.8 316.6 400.54 317.19 C395.99 325.52 387.18 331.31 378.38 334.25 C369.22 336.68 361.83 335.65 353.31 331.44 C350.12 329.31 347.22 326.94 344.31 324.44 C343.3 323.67 342.29 322.91 341.25 322.12 C340.29 321.29 340.29 321.29 339.31 320.44 C339.31 319.78 339.31 319.12 339.31 318.44 C338.59 318.15 337.87 317.86 337.12 317.56 C335.39 316.87 333.68 316.13 332 315.31 C326.88 313.65 322.32 313.71 317.44 315.88 C314.04 317.73 311.48 320.08 308.69 322.75 C298.83 331.87 287.64 336.09 274.31 336.44 C272.42 336.2 270.53 335.96 268.64 335.69 C263.65 335.15 258.63 335.29 253.62 335.31 C252.51 335.31 251.4 335.3 250.25 335.3 C249.17 335.3 248.1 335.3 246.99 335.3 C246.02 335.31 245.05 335.31 244.05 335.31 C241.37 335.43 238.93 335.87 236.31 336.44 C234.88 336.5 233.44 336.52 232 336.5 C230.78 336.48 229.57 336.46 228.31 336.44 C227.65 338.42 226.99 340.4 226.31 342.44 C227.63 343.1 228.95 343.76 230.31 344.44 C230.43 348.19 230.5 351.94 230.56 355.69 C230.6 356.75 230.63 357.81 230.66 358.91 C230.68 360.45 230.68 360.45 230.7 362.02 C230.72 362.96 230.75 363.9 230.77 364.87 C230.18 368.2 228.92 369.36 226.31 371.44 C223.87 371.93 223.87 371.93 221.31 371.88 C220.47 371.87 219.62 371.87 218.75 371.87 C215.9 371.36 214.47 370.32 212.31 368.44 C212.08 369.12 211.84 369.8 211.59 370.5 C210.03 374.08 207.99 377.22 205.81 380.44 C205.37 381.09 204.93 381.75 204.47 382.43 C197.59 392.53 190.14 401.88 181.78 410.79 C179.82 412.89 177.95 415.03 176.12 417.25 C173.5 420.35 170.58 422.95 167.48 425.57 C165.2 427.53 163.01 429.58 160.81 431.62 C137.45 452.63 108.99 468.41 79.31 478.44 C78.49 478.72 77.66 479 76.81 479.29 C53.11 487.2 28.3 490.83 3.36 490.7 C0.88 490.69 -1.6 490.7 -4.07 490.71 C-19.29 490.73 -34.15 489.26 -49.06 486.19 C-50.12 485.97 -51.18 485.75 -52.27 485.53 C-83.63 478.89 -113.61 466.16 -139.69 447.44 C-140.71 446.71 -141.73 445.98 -142.78 445.23 C-161.6 431.47 -179.7 415.14 -193.69 396.44 C-194.54 395.34 -195.39 394.24 -196.24 393.14 C-201.72 385.97 -206.63 378.53 -211.31 370.81 C-211.83 369.96 -212.35 369.11 -212.89 368.23 C-213.37 367.42 -213.86 366.61 -214.35 365.77 C-214.78 365.06 -215.21 364.34 -215.65 363.6 C-216.79 361.23 -217.28 359.03 -217.69 356.44 C-218.35 356.44 -219.01 356.44 -219.69 356.44 C-236.02 321.76 -236.02 321.76 -238.19 305.75 C-238.49 302.58 -238.49 302.58 -239.65 300.55 C-240.83 298.15 -241.27 296.03 -241.72 293.4 C-241.89 292.43 -242.06 291.45 -242.24 290.45 C-242.41 289.43 -242.58 288.42 -242.75 287.38 C-242.92 286.39 -243.1 285.4 -243.28 284.38 C-245.3 272.53 -245.92 260.83 -245.94 248.81 C-245.94 248.1 -245.94 247.38 -245.94 246.65 C-245.95 232.39 -245.5 217.65 -242.02 203.76 C-241.91 203 -241.8 202.23 -241.69 201.44 C-244.01 199.12 -245.3 198.9 -248.44 198.12 C-254.67 196.34 -259.35 193.19 -262.69 187.44 C-262.69 186.12 -262.69 184.8 -262.69 183.44 C-263.35 183.44 -264.01 183.44 -264.69 183.44 C-265.07 182.55 -265.07 182.55 -265.46 181.64 C-267.31 177.39 -269.25 173.39 -271.69 169.44 C-273.79 163.12 -272.65 157.98 -270.06 152.04 C-260.38 133.65 -239.7 124.19 -221.81 115.56 C-220.67 115.01 -220.67 115.01 -219.51 114.44 C-215.46 112.53 -211.59 111.11 -207.24 109.99 C-203.57 109.08 -203.57 109.08 -201.38 106.17 C-201.15 105.27 -200.92 104.37 -200.69 103.44 C-199.05 101.14 -197.39 98.94 -195.62 96.75 C-195.13 96.13 -194.64 95.52 -194.14 94.88 C-190.52 90.38 -186.77 86.04 -182.86 81.79 C-181.4 80.21 -179.96 78.61 -178.55 76.99 C-163.48 59.75 -145.09 46.4 -125.69 34.44 C-124.6 33.75 -123.51 33.07 -122.39 32.36 C-101.75 19.94 -78.51 11.45 -55.19 5.69 C-54.44 5.5 -53.7 5.31 -52.93 5.12 C-35.41 1.05 -17.93 -0.11 0 0 Z M-248.85 167.48 C-251.38 170.18 -253.69 172.82 -253.69 176.62 C-252.22 179.29 -250.54 179.53 -247.69 180.44 C-244.79 180.68 -244.79 180.68 -241.88 180.56 C-240.9 180.54 -239.92 180.53 -238.92 180.51 C-238.18 180.48 -237.45 180.46 -236.69 180.44 C-234.75 175.35 -232.86 170.24 -231 165.12 C-230.56 163.93 -230.13 162.74 -229.68 161.51 C-228.53 158.5 -228.53 158.5 -228.69 155.44 C-228.03 155.44 -227.37 155.44 -226.69 155.44 C-227.02 154.78 -227.35 154.12 -227.69 153.44 C-234.82 153.44 -243.69 162.92 -248.85 167.48 Z M-271.69 159.44 C-270.69 161.44 -270.69 161.44 -270.69 161.44 Z M302.31 245.44 C299.09 249.32 299.09 249.32 295.69 249.84 C294.76 249.83 293.83 249.82 292.88 249.81 C288.92 249.98 288.92 249.98 285.48 251.72 C283.25 254.34 282.31 255.96 282.31 259.44 C295.31 260.98 295.31 260.98 308.31 262.44 C308.91 261.35 308.91 261.35 309.53 260.23 C314.27 251.84 319.45 243.3 326.31 236.44 C314.86 230.71 309.14 236.47 302.31 245.44 Z M-244.69 260.44 C-243.69 264.44 -243.69 264.44 -243.69 264.44 Z M-243.69 272.44 C-242.69 275.44 -242.69 275.44 -242.69 275.44 Z M222.31 348.44 C220.02 353.25 220.02 353.25 219.31 358.44 C220.98 358.48 222.65 358.48 224.31 358.44 C225.52 357.45 225.52 357.45 225.41 355.59 C225.4 354.86 225.39 354.13 225.38 353.38 C225.35 352.08 225.33 350.78 225.31 349.44 C224.32 349.11 223.33 348.78 222.31 348.44 Z M216.31 354.44 C217.31 356.44 217.31 356.44 217.31 356.44 Z M215.31 361.44 C214.98 363.09 214.65 364.74 214.31 366.44 C217.32 367.02 220.24 367.5 223.31 367.44 C225.46 365.67 225.46 365.67 226.31 363.44 C223.79 362.6 221.74 362.17 219.12 361.88 C217.87 361.73 216.61 361.59 215.31 361.44 Z " fill="#DB3F1A" transform="translate(359.6875,478.5625)"/>
<path d="M0 0 C1.05 0 2.09 0 3.17 0.01 C21.59 0.06 39.81 0.64 57.37 6.78 C59.66 7.55 61.93 8.04 64.31 8.44 C69.17 9.36 73.67 10.75 78.31 12.44 C79.48 12.85 80.64 13.26 81.84 13.68 C124.89 29.15 164.11 57.35 192.31 93.44 C193.08 94.37 193.84 95.31 194.63 96.28 C223.06 131.79 237.56 173.98 244.31 218.44 C245.22 217.94 246.14 217.44 247.07 216.93 C251.97 214.67 255.81 215.53 260.68 217.3 C269.02 220.85 269.02 220.85 271.31 223.44 C272 226.19 272 226.19 271.31 229.44 C269.95 230.99 269.95 230.99 268.2 232.61 C264.21 236.45 260.85 240.6 257.5 245 C256.93 245.73 256.36 246.46 255.77 247.21 C252.74 251.16 250.53 254.53 249.31 259.44 C253.84 260.72 257.65 261.2 262.31 260.44 C267.54 257.2 271.41 252.1 275.31 247.44 C276.56 246.06 277.81 244.69 279.06 243.31 C279.83 242.4 279.83 242.4 280.61 241.47 C281.96 239.85 283.37 238.28 284.8 236.72 C285.65 235.76 286.5 234.8 287.38 233.81 C288.17 232.93 288.97 232.05 289.79 231.15 C291.69 228.48 291.69 228.48 290.62 225.29 C290.19 224.35 289.76 223.41 289.31 222.44 C288.98 221.45 288.65 220.46 288.31 219.44 C291.22 216.25 293.28 215.5 297.66 215.23 C305.71 215.08 313.53 215.52 321.5 216.75 C322.29 216.87 323.08 216.99 323.89 217.11 C330.44 218.2 335.47 220.36 340.44 224.88 C341.45 225.79 341.45 225.79 342.48 226.73 C349.44 233.22 349.44 233.22 349.88 238.5 C349.87 242.99 348.43 244.98 345.44 248.25 C344.72 248.96 344 249.67 343.26 250.39 C340.9 252.88 339.31 254.95 339.31 258.44 C339.98 258.29 340.64 258.15 341.32 258 C342.21 257.81 343.09 257.63 344 257.44 C344.87 257.25 345.74 257.07 346.64 256.88 C349.31 256.44 349.31 256.44 351.91 256.58 C355.08 256.39 355.91 255.42 358.06 253.12 C358.75 252.4 359.43 251.67 360.14 250.91 C363.21 247.42 366.15 243.83 369.06 240.2 C372.35 236.17 375.82 232.3 379.31 228.44 C383.11 229.44 386.03 230.25 389.31 232.44 C389.31 235.44 389.31 235.44 387.38 237.5 C386.92 237.93 386.46 238.36 386 238.8 C380.92 243.74 376.35 249.24 371.69 254.56 C371.12 255.21 370.56 255.85 369.98 256.51 C368.87 257.79 367.78 259.09 366.71 260.39 C362.56 265.38 357.95 269.39 352.87 273.4 C350.94 274.94 349.16 276.5 347.38 278.19 C340.75 283.05 333.07 286.34 324.76 285.86 C317.46 284.6 311.59 281.58 306.31 276.44 C304.53 272.86 305.46 269.19 306.31 265.44 C309.74 256.03 315.82 248.43 321.9 240.61 C324.41 237.97 324.41 237.97 324.31 236.44 C320.2 235.42 316.54 234.89 312.31 235.44 C308.6 238.24 306.02 241.69 303.31 245.44 C300.94 248.5 300.94 248.5 298.31 250.44 C296.63 250.48 294.94 250.47 293.25 250.44 C288.37 250.65 286.14 252.07 282.82 255.64 C280.78 257.99 278.78 260.35 276.79 262.73 C268.1 272.75 256.62 282.81 243.14 284.75 C235.26 285.2 227.55 282.35 221.12 277.88 C218.84 275.77 218.36 274.72 217.89 271.61 C217.88 268.84 218.01 266.18 218.31 263.44 C217.17 264.44 216.02 265.44 214.88 266.44 C214.14 267.08 213.41 267.71 212.65 268.37 C211.13 269.72 209.62 271.08 208.13 272.47 C201.56 278.55 194.55 284.71 185.31 285.44 C177.92 284.01 170.53 281.02 165.31 275.44 C164.31 272.56 164.31 272.56 164.31 270.44 C158.09 276.46 152.4 283 146.75 289.56 C145.61 290.86 144.46 292.15 143.31 293.44 C142.75 294.08 142.18 294.73 141.59 295.39 C133.79 303.78 123.79 311.26 112.13 312.41 C106.7 312.46 101.85 312.33 97.36 308.98 C94.63 306.15 93.44 304.08 92.69 300.19 C94.37 290.11 99.31 281.17 104.06 272.25 C104.97 270.54 104.97 270.54 105.89 268.79 C107.36 266 108.83 263.22 110.31 260.44 C103.38 259.78 96.45 259.12 89.31 258.44 C89.31 257.78 89.31 257.12 89.31 256.44 C88.65 256.44 87.99 256.44 87.31 256.44 C87.05 257.15 86.78 257.87 86.51 258.61 C80.13 273.73 68.77 282.94 54.09 289.42 C42.55 293.07 26.54 288.84 16.12 283.56 C13.13 281.96 11.64 281.04 10 278.04 C8.22 271.33 10.04 265.42 13.35 259.55 C14.48 257.06 14.82 254.83 15.19 252.12 C16.77 242.18 22.44 234.53 29.31 227.44 C21.35 231.48 13.68 235.74 6.25 240.69 C-0.42 245.1 -7.25 249.14 -14.25 253 C-15.62 253.77 -15.62 253.77 -17.03 254.55 C-24.41 258.57 -31.1 261.1 -39.69 260.44 C-42.12 259.44 -42.12 259.44 -43.69 258.44 C-43.69 257.12 -43.69 255.8 -43.69 254.44 C-44.35 254.44 -45.01 254.44 -45.69 254.44 C-45.71 252.33 -45.73 250.23 -45.75 248.12 C-45.76 246.95 -45.77 245.78 -45.79 244.57 C-45.69 241.44 -45.69 241.44 -44.69 238.44 C-49.25 239.06 -52.97 240.91 -57 243 C-57.7 243.36 -58.41 243.72 -59.13 244.08 C-61.97 245.53 -64.8 246.98 -67.62 248.44 C-84.78 257.27 -102.47 264.71 -120.5 271.56 C-121.15 271.81 -121.79 272.05 -122.46 272.31 C-133.32 276.44 -133.32 276.44 -135.69 276.44 C-135.79 277.1 -135.89 277.77 -136 278.46 C-136.86 282.17 -138.25 285.58 -139.71 289.08 C-140.01 289.81 -140.31 290.54 -140.62 291.29 C-141.25 292.83 -141.89 294.37 -142.52 295.9 C-143.49 298.23 -144.45 300.56 -145.41 302.89 C-146.03 304.39 -146.65 305.89 -147.27 307.39 C-147.55 308.08 -147.83 308.77 -148.13 309.48 C-150.11 314.24 -152.34 318.84 -154.69 323.44 C-161.24 321.8 -166.31 318.19 -170.69 313.12 C-173.4 305.84 -171.19 298.4 -169 291.25 C-168.73 290.34 -168.46 289.42 -168.18 288.48 C-166.24 281.98 -164.07 275.59 -161.67 269.25 C-160.62 266.5 -160.62 266.5 -160.24 263.75 C-159.69 261.44 -159.69 261.44 -158.31 260.1 C-156.33 258.07 -155.41 256.09 -154.23 253.52 C-153.76 252.52 -153.3 251.53 -152.82 250.5 C-152.32 249.43 -151.82 248.36 -151.31 247.25 C-142.44 228.44 -132.51 210.19 -121.69 192.44 C-121.15 191.56 -120.62 190.69 -120.07 189.79 C-110.42 174 -100.2 158.66 -89.69 143.44 C-85.38 144.14 -83.73 144.96 -80.94 148.38 C-80.34 149.09 -79.75 149.8 -79.14 150.53 C-76.5 154 -76.2 156.08 -76.69 160.44 C-78.22 164.14 -80.14 167.61 -82.06 171.12 C-82.61 172.15 -83.16 173.17 -83.72 174.22 C-84.84 176.31 -85.96 178.39 -87.09 180.48 C-89.32 184.61 -91.51 188.77 -93.69 192.94 C-94.5 194.48 -95.31 196.02 -96.12 197.57 C-96.53 198.35 -96.95 199.13 -97.37 199.94 C-98.79 202.64 -100.23 205.33 -101.66 208.03 C-108.16 220.3 -114.16 232.7 -119.69 245.44 C-119.36 245.77 -119.03 246.1 -118.69 246.44 C-107.17 241.98 -96.27 236.81 -85.42 230.92 C-82.43 229.3 -79.42 227.7 -76.41 226.11 C-49.23 211.68 -22.29 195.98 2.31 177.44 C2.88 177.01 3.46 176.58 4.05 176.13 C12.57 169.68 20.57 162.81 28.31 155.44 C29.7 154.15 29.7 154.15 31.11 152.84 C37.4 146.83 41.98 141.28 44.31 132.81 C44.31 126.52 41.44 122 37.31 117.44 C-11.62 88.4 -104.37 112.19 -156.54 125.35 C-177.31 130.71 -197.56 137.68 -217.06 146.62 C-217.77 146.95 -218.48 147.27 -219.21 147.6 C-223.08 149.42 -225.78 151.33 -228.69 154.44 C-230.7 155.64 -230.7 155.64 -232.81 156.69 C-240.89 161.03 -248 166.47 -252.69 174.44 C-252.69 175.43 -252.69 176.42 -252.69 177.44 C-248.22 179.66 -243.96 179.82 -239.06 179.81 C-237.83 179.82 -237.83 179.82 -236.57 179.82 C-229.43 179.7 -222.74 178.49 -215.83 176.77 C-212.05 175.84 -209.42 175.27 -205.69 176.44 C-205.81 182.36 -207.61 185.37 -211.67 189.65 C-214.74 192.37 -217.88 193.96 -221.69 195.44 C-222.36 195.72 -223.04 196.01 -223.74 196.3 C-232.67 199.73 -242.44 200.69 -251.53 197.46 C-256.18 195.26 -260.09 191.91 -262.69 187.44 C-262.69 186.12 -262.69 184.8 -262.69 183.44 C-263.35 183.44 -264.01 183.44 -264.69 183.44 C-265.07 182.55 -265.07 182.55 -265.46 181.64 C-267.31 177.39 -269.25 173.39 -271.69 169.44 C-273.79 163.12 -272.65 157.98 -270.06 152.04 C-260.38 133.65 -239.7 124.19 -221.81 115.56 C-220.67 115.01 -220.67 115.01 -219.51 114.44 C-215.46 112.53 -211.59 111.11 -207.24 109.99 C-203.57 109.08 -203.57 109.08 -201.38 106.17 C-201.15 105.27 -200.92 104.37 -200.69 103.44 C-199.05 101.14 -197.39 98.94 -195.62 96.75 C-195.13 96.13 -194.64 95.52 -194.14 94.88 C-190.52 90.38 -186.77 86.04 -182.86 81.79 C-181.4 80.21 -179.96 78.61 -178.55 76.99 C-163.48 59.75 -145.09 46.4 -125.69 34.44 C-124.6 33.75 -123.51 33.07 -122.39 32.36 C-101.75 19.94 -78.51 11.45 -55.19 5.69 C-54.44 5.5 -53.7 5.31 -52.93 5.12 C-35.41 1.05 -17.93 -0.11 0 0 Z M-271.69 159.44 C-270.69 161.44 -270.69 161.44 -270.69 161.44 Z " fill="#BE3517" transform="translate(359.6875,478.5625)"/>
<path d="M0 0 C1.04 -0.01 2.07 -0.01 3.14 -0.02 C8.71 0.04 13.35 0.52 18.62 2.31 C20.08 2.62 21.54 2.91 23 3.19 C27.9 4.27 32.14 6.08 36.62 8.31 C37.79 8.88 38.95 9.45 40.14 10.04 C48.5 14.24 55.69 18.96 62.62 25.31 C63.55 26.15 64.48 26.98 65.43 27.84 C74.96 36.84 82.77 47.63 86.62 60.31 C86.98 61.4 87.34 62.49 87.7 63.61 C89.33 70.3 88.97 77.28 88.94 84.12 C88.93 85.23 88.93 85.23 88.93 86.36 C88.88 97.94 88.21 109.01 85.62 120.31 C85.44 121.18 85.25 122.06 85.06 122.96 C78.07 154.97 65.61 185.45 51.12 214.75 C50.74 215.53 50.36 216.31 49.96 217.11 C47.85 221.27 45.5 225.04 42.73 228.79 C41.39 230.63 40.31 232.55 39.25 234.56 C36.9 238.89 34.31 243.02 31.64 247.16 C30.15 249.5 28.68 251.85 27.23 254.22 C23.05 261.07 18.83 267.6 13.68 273.77 C11.24 276.79 9.03 279.94 6.81 283.12 C-0.75 293.88 -9.52 303.6 -18.38 313.31 C-19.25 314.29 -20.13 315.27 -21.03 316.28 C-36.27 333.28 -54.25 348.29 -75.38 357.31 C-76.58 357.86 -76.58 357.86 -77.8 358.42 C-89.42 363.08 -103.61 362.19 -115 357.56 C-119.6 355.38 -123.45 352.52 -127.38 349.31 C-128.25 348.65 -128.25 348.65 -129.15 347.98 C-137.1 341.74 -144.12 332.28 -146.38 322.31 C-145.96 320.03 -145.96 320.03 -145.38 318.31 C-143.73 317.98 -142.08 317.65 -140.38 317.31 C-140.38 316.98 -140.38 316.65 -140.38 316.31 C-139.48 316.19 -138.58 316.07 -137.66 315.94 C-94.25 308.76 -60 264.33 -35.86 230.71 C-31.83 225.04 -27.98 219.27 -24.38 213.31 C-27.72 214.75 -30.43 216.82 -33.3 219.04 C-51.49 233.05 -72.51 240.38 -95.56 237.69 C-105.45 235.98 -114.99 233.17 -122.77 226.65 C-124.48 225.15 -124.48 225.15 -127.12 223.75 C-136.44 217.8 -142.76 203.56 -145.09 193.09 C-146.6 184.77 -146.6 184.77 -145.38 182.31 C-146.03 182.31 -146.7 182.31 -147.38 182.31 C-148.83 142.24 -137.89 104.18 -114.38 71.31 C-113.67 70.32 -112.97 69.32 -112.24 68.3 C-90.14 38.01 -61.6 14.34 -25.38 3.31 C-24.35 2.97 -23.33 2.63 -22.27 2.29 C-14.9 0.17 -7.62 0.04 0 0 Z M-33.95 85.93 C-35.22 87.16 -36.51 88.37 -37.8 89.58 C-62.58 113.31 -85.11 151.72 -87.38 186.31 C-81.98 185.74 -77.43 184.45 -72.44 182.38 C-71.7 182.07 -70.97 181.77 -70.22 181.45 C-58.15 176.24 -47.33 168.84 -37.38 160.31 C-36.24 159.36 -35.11 158.41 -33.97 157.46 C-24.32 149.35 -15.5 140.99 -7.62 131.11 C-6.17 129.31 -4.7 127.52 -3.2 125.77 C14.23 105.3 34.18 74.84 35.62 47.31 C10.7 47.31 -16.92 69.43 -33.95 85.93 Z M-146.38 154.31 C-145.38 158.31 -145.38 158.31 -145.38 158.31 Z " fill="#FCFCFC" transform="translate(902.375,537.6875)"/>
<path d="M0 0 C1.05 0 2.09 0 3.17 0.01 C21.59 0.06 39.81 0.64 57.37 6.78 C59.66 7.55 61.93 8.04 64.31 8.44 C69.17 9.36 73.67 10.75 78.31 12.44 C79.48 12.85 80.64 13.26 81.84 13.68 C124.89 29.15 164.11 57.35 192.31 93.44 C193.08 94.37 193.84 95.31 194.63 96.28 C218.85 126.53 233.92 162.6 241.31 200.44 C241.6 201.82 241.6 201.82 241.89 203.24 C242.44 205.97 242.95 208.7 243.44 211.44 C243.6 212.26 243.77 213.08 243.94 213.92 C244.85 219.49 244.85 219.49 243.25 222.33 C241.87 224 241.87 224 239.31 226.44 C235.98 226.02 233.43 225.05 230.5 223.5 C221.32 218.77 212.72 218.29 202.81 221.06 C197.64 222.75 193.47 224.92 189.12 228.17 C185.08 231.01 181.97 230.23 177.31 229.44 C177.11 230.1 176.91 230.77 176.7 231.46 C174.8 235.55 172.07 238.68 169.19 242.12 C168 243.56 166.81 245 165.62 246.44 C164.76 247.48 164.76 247.48 163.88 248.54 C161.97 250.85 160.11 253.2 158.25 255.56 C146.77 269.95 134.42 283.53 121.31 296.44 C120.65 295.78 119.99 295.12 119.31 294.44 C119.44 288.29 122.77 282.92 125.5 277.56 C126.3 275.98 126.3 275.98 127.11 274.37 C140.83 247.58 156.89 221.34 175.31 197.5 C175.77 196.9 176.23 196.3 176.7 195.69 C179.95 191.56 179.95 191.56 183.31 190.44 C183.31 189.78 183.31 189.12 183.31 188.44 C182.65 188.44 181.99 188.44 181.31 188.44 C181.31 187.78 181.31 187.12 181.31 186.44 C177.98 186.03 174.65 185.72 171.31 185.44 C169.77 185.28 169.77 185.28 168.19 185.12 C167.16 185.06 166.12 185 165.06 184.94 C164.11 184.87 163.15 184.79 162.17 184.72 C154.45 186.66 149.89 197.48 145.94 203.75 C145.25 204.83 144.57 205.9 143.87 207.01 C136.22 219.07 128.75 231.25 121.31 243.44 C119.69 242.65 118.06 241.86 116.44 241.06 C115.53 240.62 114.63 240.18 113.7 239.73 C111.31 238.44 111.31 238.44 109.31 236.44 C108.12 229.71 110.19 224.43 113.12 218.5 C113.86 216.91 114.6 215.31 115.33 213.72 C115.68 212.97 116.03 212.22 116.39 211.45 C121.63 200.06 122.44 186.06 118.75 174 C114.03 162.2 107.06 153.4 98.31 144.44 C97.66 143.71 97 142.98 96.32 142.22 C90.54 135.96 83.55 131.81 76.31 127.44 C75.51 126.92 74.7 126.4 73.87 125.86 C67.76 122.11 61.3 120.77 54.31 119.44 C54.31 118.78 54.31 118.12 54.31 117.44 C53.72 117.18 53.13 116.93 52.52 116.67 C50.05 115.29 48.82 113.89 47.06 111.69 C29.42 91.03 -3.49 86.59 -29.07 84.45 C-84.91 80.2 -144.66 88.4 -197.27 107.72 C-199.69 108.44 -199.69 108.44 -201.69 107.44 C-200.23 103.12 -197.92 99.79 -195.12 96.25 C-194.68 95.68 -194.24 95.11 -193.78 94.52 C-190.32 90.13 -186.68 85.94 -182.89 81.83 C-181.42 80.23 -179.97 78.62 -178.55 76.98 C-163.48 59.75 -145.09 46.4 -125.69 34.44 C-124.6 33.75 -123.51 33.07 -122.39 32.36 C-101.75 19.94 -78.51 11.45 -55.19 5.69 C-54.44 5.5 -53.7 5.31 -52.93 5.12 C-35.41 1.05 -17.93 -0.11 0 0 Z " fill="#DA3F1A" transform="translate(359.6875,478.5625)"/>
<path d="M0 0 C0.99 0.5 0.99 0.5 2 1 C1.35 1.67 1.35 1.67 0.68 2.36 C-6.96 10.62 -11.11 18.85 -13.27 29.87 C-13.97 32.87 -14.95 35.34 -16.25 38.12 C-18.6 43.53 -18 48.3 -17 54 C-15.88 54.44 -15.88 54.44 -14.74 54.88 C-12 56 -12 56 -10.11 56.96 C-5.17 59.47 -0.28 60.73 5.12 61.75 C5.79 61.88 6.46 62.01 7.15 62.14 C20.79 64.53 30.75 60.62 42 53 C49.39 47.39 54.89 38.22 59 30 C59.66 30 60.32 30 61 30 C61 30.66 61 31.32 61 32 C61.92 31.99 62.84 31.98 63.78 31.96 C65.01 31.96 66.24 31.95 67.5 31.94 C69.31 31.92 69.31 31.92 71.16 31.9 C75.19 32 79.01 32.44 83 33 C82.27 34.44 82.27 34.44 81.53 35.9 C77.79 43.31 74.12 50.75 70.56 58.25 C70.22 58.96 69.88 59.68 69.53 60.41 C66.84 66.12 65.34 70.63 66 77 C68.04 80.6 69.34 82.31 73.14 83.89 C80.89 85.85 88.66 85.1 95.86 81.62 C110.4 72.79 122.31 59.22 132.48 45.73 C132.98 45.16 133.48 44.59 134 44 C134.66 44 135.32 44 136 44 C136.37 45.14 136.37 45.14 136.75 46.3 C139.17 51.51 144.46 53.95 149.61 56.08 C155.48 58.03 159.8 58.55 165.57 55.76 C171.55 51.94 176.77 47.74 181.85 42.82 C184.71 40.07 187.51 37.9 191 36 C190.91 36.8 190.81 37.59 190.72 38.41 C190.16 44.56 190.16 44.56 192.46 50.03 C198.81 54.96 206.64 57.69 214.69 57.34 C230.05 55.08 242.67 41.67 253 31 C253.66 31.33 254.32 31.66 255 32 C256.56 32.26 258.12 32.49 259.68 32.68 C260.61 32.81 261.54 32.93 262.49 33.06 C264.45 33.31 266.41 33.56 268.37 33.81 C269.3 33.93 270.23 34.06 271.18 34.18 C272.03 34.29 272.89 34.4 273.76 34.51 C276 35 276 35 279 37 C278.8 38.1 278.8 38.1 278.61 39.23 C277.6 45.4 277.6 45.4 279.94 50.94 C287.65 56.13 294.59 59.06 304 58 C312.98 55.71 319.36 50.68 326.09 44.62 C327.91 42.98 329.78 41.38 331.7 39.86 C333.69 38.25 335.23 36.74 336.81 34.75 C337.9 33.39 337.9 33.39 339 32 C354.38 36.66 367.15 47.47 378 59 C378 59.66 378 60.32 378 61 C378.66 61 379.32 61 380 61 C382.46 66.5 382.42 71.24 381 77 C379.24 81.14 377.2 85.08 375 89 C374.34 89 373.68 89 373 89 C372.62 89.87 372.62 89.87 372.23 90.75 C367.68 99.08 358.87 104.87 350.06 107.81 C340.91 110.24 333.52 109.21 325 105 C321.81 102.87 318.91 100.5 316 98 C314.99 97.24 313.98 96.47 312.94 95.69 C312.3 95.13 311.66 94.57 311 94 C311 93.34 311 92.68 311 92 C310.28 91.71 309.56 91.42 308.81 91.12 C307.08 90.43 305.37 89.69 303.69 88.88 C298.57 87.21 294.01 87.28 289.12 89.44 C285.73 91.29 283.16 93.64 280.38 96.31 C270.52 105.43 259.32 109.65 246 110 C244.11 109.76 242.21 109.52 240.33 109.25 C235.34 108.72 230.32 108.86 225.31 108.88 C224.2 108.87 223.08 108.87 221.94 108.86 C220.86 108.86 219.78 108.87 218.68 108.87 C217.22 108.87 217.22 108.87 215.74 108.87 C213.06 109 210.62 109.43 208 110 C206.56 110.06 205.12 110.09 203.69 110.06 C202.47 110.04 201.25 110.02 200 110 C199.34 112.31 198.68 114.62 198 117 C197.08 117.06 197.08 117.06 196.14 117.11 C195.33 117.18 194.52 117.24 193.69 117.31 C192.89 117.37 192.09 117.43 191.26 117.49 C188.55 118.1 187.64 118.78 186 121 C185.35 123.08 185 125.12 184.62 127.26 C184.32 128.12 184.32 128.12 184 129 C183.01 129.33 182.02 129.66 181 130 C176.98 123.91 173.89 117.69 171 111 C167.87 111.68 167.87 111.68 166.74 114.15 C166.34 115.07 165.93 116 165.52 116.95 C165.08 117.97 164.64 118.98 164.18 120.02 C163.73 121.09 163.28 122.15 162.81 123.25 C162.35 124.3 161.89 125.35 161.41 126.43 C158.87 131.86 158.87 131.86 158.05 137.67 C158.03 138.83 158.03 138.83 158 140 C153.08 144.5 148.52 146.01 142 147 C141.67 146.01 141.34 145.02 141 144 C142 142.66 143 141.33 144 140 C144.58 137.53 144.58 137.53 144.69 134.88 C144.75 133.92 144.82 132.96 144.88 131.97 C145.05 127.65 145.08 123.33 145 119 C140.94 118.02 137.17 117.77 133 118 C129.75 119.72 129.75 119.72 129 123 C128.77 129.09 128.77 129.09 130 135 C128.68 135.33 127.36 135.66 126 136 C124.74 133.49 124.78 131.49 124.62 128.69 C124.19 122.8 124.19 122.8 121 118 C117.87 117.58 117.87 117.58 115 118 C114.67 118.66 114.34 119.32 114 120 C113.34 119.67 112.68 119.34 112 119 C111.01 119 110.02 119 109 119 C108.67 121.31 108.34 123.62 108 126 C107.01 126 106.02 126 105 126 C103.65 123.29 103.93 120.99 104 118 C102.68 117.67 101.36 117.34 100 117 C100 116.34 100 115.68 100 115 C96.85 114.3 94.27 114 91 114 C89.31 113.39 87.64 112.73 86 112 C86.04 112.78 86.08 113.57 86.12 114.38 C86 117 86 117 84 119 C84 119.66 84 120.32 84 121 C84.66 121 85.32 121 86 121 C86 123.64 86 126.28 86 129 C84.17 128.78 84.17 128.78 82 128 C80.55 125.97 80.55 125.97 79.31 123.5 C77.94 120.55 77.94 120.55 76 118 C71.29 117.49 71.29 117.49 67.19 119.38 C66.8 119.91 66.4 120.45 66 121 C65.34 121.66 64.68 122.32 64 123 C63.54 124.97 63.54 124.97 63.38 127.12 C63.19 129.04 63.19 129.04 63 131 C62.01 131.33 61.02 131.66 60 132 C57.74 130.6 55.98 128.8 54 127 C54.54 123.2 56.2 121.53 59 119 C54.63 119 54.25 119.23 51.25 122 C50.33 122.84 50.33 122.84 49.39 123.69 C48.93 124.12 48.47 124.55 48 125 C46 123 46 123 45.91 120.03 C46.01 117.68 46.12 115.32 46.22 112.97 C46.15 111.99 46.08 111.01 46 110 C45.01 109.34 44.02 108.68 43 108 C43 115.59 43 123.18 43 131 C42.67 130.34 42.34 129.68 42 129 C39.82 127.75 37.69 126.89 35.31 126.06 C34.55 125.71 33.79 125.36 33 125 C32.67 124.01 32.34 123.02 32 122 C35.44 119.71 36.99 119.82 41 120 C39.16 117.73 39.16 117.73 36.4 117.8 C35.4 117.83 34.4 117.85 33.38 117.88 C31.87 117.9 31.87 117.9 30.34 117.93 C29.57 117.95 28.79 117.98 28 118 C28 119.98 28 121.96 28 124 C26.68 124 25.36 124 24 124 C24 123.34 24 122.68 24 122 C23.34 122 22.68 122 22 122 C21.59 121.38 21.18 120.76 20.75 120.12 C19.13 117.72 19.13 117.72 16.06 117.31 C12.62 115.84 12.33 115.37 10.81 112.12 C10.17 110.43 9.57 108.72 9 107 C8.72 106.2 8.45 105.4 8.16 104.58 C5.71 96.32 5.3 87.84 4.82 79.28 C4.72 77.76 4.72 77.76 4.62 76.22 C4.58 75.31 4.53 74.4 4.48 73.47 C3.93 70.62 2.89 69.16 1 67 C-5.68 67.42 -10.21 69.3 -16 72.56 C-17.7 73.49 -19.4 74.41 -21.1 75.33 C-21.94 75.79 -22.77 76.25 -23.63 76.72 C-29.67 79.99 -35.84 82.98 -42 86 C-43.08 86.53 -44.16 87.06 -45.28 87.61 C-49.04 89.46 -52.8 91.29 -56.56 93.12 C-57.2 93.43 -57.83 93.74 -58.49 94.06 C-65.48 97.46 -72.46 100.74 -79.75 103.44 C-86.41 105.96 -92.32 109.32 -96.58 115.16 C-98 117 -98 117 -100.5 117.75 C-103.51 119.26 -103.68 120.06 -104.81 123.12 C-105.23 124.41 -105.63 125.7 -106 127 C-108 126 -108 126 -108.85 123.71 C-109.23 122.34 -109.23 122.34 -109.62 120.94 C-110.02 119.56 -110.02 119.56 -110.41 118.15 C-110.61 117.44 -110.8 116.73 -111 116 C-110.34 115.34 -109.68 114.68 -109 114 C-111.93 112.87 -112.92 112.97 -115.94 114.12 C-119 115 -119 115 -121.62 113.69 C-122.41 113.13 -123.19 112.57 -124 112 C-127.6 110.68 -131.2 110.86 -135 111 C-136.71 112.71 -136.23 115 -136.32 117.35 C-136.36 118.43 -136.4 119.51 -136.44 120.62 C-136.48 121.76 -136.52 122.89 -136.56 124.06 C-136.61 125.2 -136.65 126.34 -136.69 127.52 C-136.8 130.34 -136.9 133.17 -137 136 C-138.9 136.08 -140.79 136.14 -142.69 136.19 C-143.74 136.22 -144.8 136.26 -145.89 136.29 C-150.81 135.83 -153.27 133.76 -156.62 130.25 C-161.95 123.33 -163.06 116.9 -162.31 108.22 C-160.73 97.06 -156.73 86.17 -152 76 C-151.41 74.67 -150.83 73.33 -150.25 72 C-146.97 64.61 -143.46 57.31 -140 50 C-139.34 50 -138.68 50 -138 50 C-137.81 48.72 -137.63 47.44 -137.44 46.12 C-137.33 45.41 -137.23 44.69 -137.12 43.95 C-136.83 41.92 -136.83 41.92 -138 40 C-136.79 39.49 -135.58 38.98 -134.34 38.46 C-130.04 36.66 -125.75 34.85 -121.46 33.03 C-119.37 32.16 -117.28 31.28 -115.18 30.41 C-104.85 26.08 -94.89 21.06 -84.95 15.9 C-84.3 15.57 -83.66 15.24 -83 14.9 C-81.23 13.99 -79.46 13.07 -77.7 12.15 C-76.36 11.58 -76.36 11.58 -75 11 C-74.01 11.5 -74.01 11.5 -73 12 C-72.97 14.1 -72.95 16.21 -72.94 18.31 C-72.93 19.48 -72.91 20.66 -72.9 21.86 C-73 25 -73 25 -74 28 C-73.34 28 -72.68 28 -72 28 C-72 29.32 -72 30.64 -72 32 C-63.85 34.61 -55.91 32.26 -48.4 28.81 C-45.72 27.42 -43.07 25.98 -40.44 24.5 C-39.48 23.97 -38.53 23.45 -37.55 22.9 C-30.09 18.73 -22.92 14.21 -15.8 9.5 C-12.27 7.16 -8.69 4.93 -5.06 2.75 C-4.13 2.19 -3.19 1.63 -2.22 1.05 C-1.49 0.7 -0.76 0.36 0 0 Z " fill="#9E2B13" transform="translate(388,705)"/>
<path d="M0 0 C3.9 4.27 6.1 8.05 6 14 C4.06 22.5 -1.02 27.96 -7 34 C-7.88 34.94 -8.75 35.87 -9.66 36.84 C-17.1 44.69 -25.37 51.15 -34.07 57.56 C-35.69 58.77 -37.29 60.01 -38.88 61.26 C-54.17 73.23 -71.23 83.23 -88 93 C-88.72 93.43 -89.45 93.85 -90.19 94.29 C-105.82 103.48 -121.85 111.8 -138 120 C-138.94 120.48 -139.88 120.96 -140.85 121.45 C-145.38 123.74 -149.92 125.9 -154.62 127.81 C-156.16 128.44 -156.16 128.44 -157.73 129.08 C-158.48 129.38 -159.23 129.69 -160 130 C-159.44 125.23 -157.98 121.34 -155.86 117.07 C-155.54 116.42 -155.22 115.76 -154.89 115.09 C-153.85 112.95 -152.8 110.82 -151.75 108.69 C-151.02 107.2 -150.29 105.71 -149.56 104.22 C-139.88 84.5 -129.62 65.09 -119.01 45.85 C-117.02 42.2 -116.38 40.24 -117 36 C-118.97 32.65 -121.14 29.63 -124 27 C-125.65 26.61 -127.32 26.27 -129 26 C-129.61 26.93 -130.22 27.87 -130.85 28.83 C-133.13 32.31 -135.41 35.8 -137.7 39.29 C-138.68 40.79 -139.67 42.3 -140.65 43.8 C-142.07 45.97 -143.49 48.14 -144.92 50.32 C-145.35 50.98 -145.79 51.64 -146.23 52.33 C-147.07 53.6 -147.91 54.87 -148.76 56.14 C-149.61 57.41 -150.44 58.71 -151.26 60.01 C-154.4 64.79 -154.4 64.79 -157.34 65.81 C-158.12 65.8 -158.9 65.79 -159.71 65.77 C-165.04 65.95 -169.61 67.05 -174.69 68.62 C-175.55 68.89 -176.41 69.15 -177.3 69.42 C-191.6 73.94 -207.29 80.1 -215.04 93.84 C-216.77 97.97 -217.37 102.14 -218 106.56 C-218.93 113.06 -219.77 118.27 -224.88 122.81 C-230.09 126.46 -234.59 128.04 -241 127 C-252.82 123.1 -262.49 117.18 -268.31 105.88 C-271.13 99.94 -272.29 94.69 -272.12 88.12 C-272.12 87.44 -272.11 86.75 -272.1 86.04 C-272.07 84.36 -272.04 82.68 -272 81 C-272.66 80.67 -273.32 80.34 -274 80 C-272.79 79.65 -271.59 79.3 -270.34 78.93 C-256.65 74.95 -256.65 74.95 -246.81 65.1 C-245.85 62.62 -245.85 60.64 -246 58 C-246.67 58.12 -247.33 58.24 -248.02 58.37 C-249.96 58.72 -251.9 59.07 -253.84 59.42 C-255.89 59.8 -257.93 60.18 -259.97 60.58 C-264.71 61.49 -269.14 62.26 -274 62 C-275.22 58.5 -274.77 56.48 -273.57 53.02 C-273.25 52.08 -272.93 51.15 -272.6 50.18 C-272.09 48.73 -272.09 48.73 -271.56 47.25 C-271.22 46.27 -270.89 45.28 -270.54 44.27 C-269.7 41.84 -268.85 39.42 -268 37 C-267.34 37 -266.68 37 -266 37 C-266.5 35.51 -266.5 35.51 -267 34 C-245.22 15.2 -206.31 7.93 -179 2 C-178.34 1.86 -177.68 1.71 -177 1.56 C-33.73 -29.51 -33.73 -29.51 0 0 Z " fill="#81240F" transform="translate(399,597)"/>
<path d="M0 0 C6.12 5.85 10.09 11.36 13.56 19 C13.92 19.76 14.27 20.53 14.64 21.31 C18.65 29.99 20.45 38.38 17.2 47.77 C12.92 56.22 6.98 62.72 0.38 69.38 C-0.24 70.03 -0.86 70.69 -1.5 71.36 C-6.44 76.53 -12.01 80.97 -17.62 85.38 C-18.19 85.82 -18.75 86.26 -19.33 86.72 C-51.41 111.91 -88.58 131.58 -125.62 148.38 C-126.48 148.76 -127.33 149.15 -128.21 149.55 C-140.13 154.94 -152.21 159.85 -164.44 164.5 C-165.08 164.75 -165.73 164.99 -166.4 165.25 C-177.26 169.38 -177.26 169.38 -179.62 169.38 C-179.73 170.04 -179.83 170.71 -179.94 171.4 C-180.79 175.11 -182.19 178.52 -183.64 182.02 C-183.94 182.75 -184.24 183.48 -184.55 184.23 C-185.19 185.77 -185.82 187.3 -186.46 188.84 C-187.43 191.17 -188.39 193.5 -189.35 195.83 C-189.97 197.33 -190.59 198.83 -191.21 200.33 C-191.49 201.02 -191.77 201.71 -192.06 202.41 C-194.05 207.18 -196.28 211.78 -198.62 216.38 C-205.17 214.74 -210.24 211.13 -214.62 206.06 C-217.34 198.78 -215.12 191.33 -212.94 184.19 C-212.53 182.82 -212.53 182.82 -212.12 181.42 C-210.17 174.92 -208.01 168.53 -205.61 162.19 C-204.56 159.44 -204.56 159.44 -204.18 156.69 C-203.62 154.38 -203.62 154.38 -202.24 153.04 C-200.27 151.01 -199.35 149.03 -198.16 146.46 C-197.7 145.46 -197.23 144.47 -196.76 143.44 C-196.26 142.37 -195.76 141.29 -195.25 140.19 C-186.38 121.38 -176.45 103.13 -165.62 85.38 C-165.09 84.5 -164.56 83.62 -164.01 82.72 C-154.36 66.94 -144.14 51.59 -133.62 36.38 C-129.31 37.08 -127.67 37.89 -124.88 41.31 C-124.28 42.02 -123.69 42.73 -123.08 43.46 C-120.44 46.93 -120.13 49.01 -120.62 53.38 C-122.16 57.08 -124.07 60.55 -126 64.06 C-126.55 65.08 -127.09 66.1 -127.66 67.16 C-128.77 69.25 -129.9 71.33 -131.03 73.42 C-133.26 77.55 -135.44 81.71 -137.62 85.88 C-138.44 87.42 -139.25 88.96 -140.06 90.5 C-140.47 91.29 -140.88 92.07 -141.31 92.88 C-142.73 95.58 -144.16 98.27 -145.6 100.96 C-152.1 113.24 -158.1 125.63 -163.62 138.38 C-163.29 138.71 -162.97 139.03 -162.62 139.38 C-151.1 134.92 -140.21 129.75 -129.36 123.85 C-126.36 122.23 -123.35 120.64 -120.34 119.04 C-93.17 104.61 -66.23 88.91 -41.62 70.38 C-41.05 69.94 -40.48 69.51 -39.89 69.07 C-31.37 62.61 -23.36 55.75 -15.62 48.38 C-14.7 47.52 -13.78 46.66 -12.83 45.78 C-6.54 39.76 -1.96 34.22 0.38 25.75 C0.38 19.45 -2.5 14.93 -6.62 10.38 C-55.56 -18.66 -148.3 5.13 -200.48 18.29 C-221.25 23.65 -241.5 30.62 -261 39.56 C-262.06 40.04 -262.06 40.04 -263.15 40.54 C-267.01 42.36 -269.72 44.27 -272.62 47.38 C-274.63 48.58 -274.63 48.58 -276.75 49.62 C-284.82 53.97 -291.94 59.41 -296.62 67.38 C-296.62 68.37 -296.62 69.36 -296.62 70.38 C-292.16 72.6 -287.89 72.76 -283 72.75 C-281.76 72.75 -281.76 72.75 -280.5 72.76 C-273.37 72.64 -266.68 71.43 -259.77 69.71 C-255.98 68.78 -253.36 68.21 -249.62 69.38 C-249.75 75.3 -251.55 78.31 -255.61 82.59 C-258.68 85.31 -261.81 86.9 -265.62 88.38 C-266.3 88.66 -266.98 88.95 -267.68 89.24 C-276.61 92.67 -286.38 93.63 -295.47 90.39 C-300.11 88.2 -304.03 84.85 -306.62 80.38 C-306.62 79.06 -306.62 77.74 -306.62 76.38 C-307.28 76.38 -307.94 76.38 -308.62 76.38 C-308.88 75.78 -309.13 75.19 -309.39 74.58 C-311.25 70.33 -313.18 66.33 -315.62 62.38 C-317.73 56.06 -316.59 50.91 -314 44.98 C-304.32 26.59 -283.64 17.13 -265.75 8.5 C-264.99 8.13 -264.23 7.76 -263.45 7.38 C-257.98 4.81 -252.45 2.97 -246.62 1.38 C-246.62 0.72 -246.62 0.05 -246.62 -0.62 C-245.14 -0.13 -245.14 -0.13 -243.62 0.38 C-241.64 -0.02 -241.64 -0.02 -239.5 -0.81 C-238.67 -1.1 -237.83 -1.38 -236.96 -1.67 C-235.59 -2.14 -235.59 -2.14 -234.19 -2.62 C-197.6 -14.7 -159.17 -21.46 -120.75 -23.88 C-119.47 -23.96 -118.2 -24.04 -116.88 -24.12 C-80.4 -26.16 -28.74 -26.35 0 0 Z M-315.62 52.38 C-314.62 54.38 -314.62 54.38 -314.62 54.38 Z " fill="#FCFCFC" transform="translate(403.625,585.625)"/>
<path d="M0 0 C4.49 0.38 8.82 1.19 13.2 2.27 C13.2 2.93 13.2 3.59 13.2 4.27 C13.86 4.27 14.52 4.27 15.2 4.27 C15.2 6.27 15.2 6.27 12.96 8.58 C12.05 9.47 11.14 10.36 10.2 11.27 C3.72 18.63 -1.82 26.48 -7.12 34.71 C-7.86 35.86 -8.6 37.01 -9.35 38.15 C-22.21 58.08 -34.26 78.55 -44.62 99.9 C-44.96 100.59 -45.3 101.28 -45.66 102 C-47.35 105.58 -48.02 107.51 -46.8 111.27 C-33.78 98.66 -33.78 98.66 -21.93 84.97 C-19.34 81.69 -16.61 78.55 -13.87 75.4 C-6.09 66.39 1.18 57.06 7.72 47.1 C9.2 45.27 9.2 45.27 12.2 44.27 C13.08 44.54 13.97 44.81 14.88 45.09 C19.33 45.34 20.66 43.65 23.98 40.91 C31.38 35.45 41.13 33.29 50.2 34.27 C55.65 35.58 61.09 36.92 65.84 39.97 C68.06 41.47 68.06 41.47 70.32 41.18 C72.61 40.07 73.65 38.85 75.2 36.84 C77.29 34.11 78.94 32.5 82.2 31.27 C89.6 31.52 95.31 34.19 101.76 37.65 C103.2 39.27 103.2 39.27 103.88 42.02 C103.13 45.58 102.63 46.09 100.08 48.44 C96.09 52.28 92.73 56.44 89.38 60.84 C88.81 61.56 88.24 62.29 87.65 63.04 C84.63 66.99 82.41 70.36 81.2 75.27 C85.72 76.55 89.53 77.04 94.2 76.27 C99.43 73.04 103.29 67.94 107.2 63.27 C108.44 61.9 109.69 60.52 110.95 59.15 C111.45 58.54 111.96 57.93 112.49 57.3 C113.85 55.69 115.26 54.11 116.68 52.55 C117.96 51.12 117.96 51.12 119.26 49.65 C120.05 48.77 120.85 47.89 121.67 46.98 C123.57 44.31 123.57 44.31 122.5 41.12 C122.07 40.18 121.64 39.24 121.2 38.27 C120.87 37.28 120.54 36.29 120.2 35.27 C123.1 32.09 125.16 31.34 129.54 31.07 C137.6 30.92 145.41 31.36 153.38 32.59 C154.17 32.7 154.96 32.82 155.77 32.94 C162.32 34.04 167.35 36.19 172.32 40.71 C172.99 41.32 173.67 41.93 174.36 42.56 C181.32 49.06 181.32 49.06 181.76 54.34 C181.75 58.83 180.32 60.81 177.32 64.09 C176.6 64.79 175.88 65.5 175.14 66.23 C172.78 68.71 171.2 70.78 171.2 74.27 C172.19 74.06 172.19 74.06 173.21 73.84 C174.09 73.65 174.97 73.46 175.88 73.27 C176.75 73.09 177.62 72.9 178.52 72.71 C181.2 72.27 181.2 72.27 183.79 72.42 C186.97 72.23 187.79 71.25 189.95 68.96 C190.97 67.87 190.97 67.87 192.02 66.75 C195.09 63.25 198.03 59.66 200.94 56.04 C204.23 52 207.7 48.13 211.2 44.27 C214.99 45.28 217.91 46.08 221.2 48.27 C221.2 51.27 221.2 51.27 219.26 53.34 C218.8 53.76 218.35 54.19 217.88 54.63 C212.81 59.58 208.24 65.07 203.57 70.4 C203.01 71.04 202.44 71.68 201.86 72.35 C200.75 73.63 199.66 74.92 198.59 76.23 C194.45 81.21 189.83 85.22 184.75 89.24 C182.82 90.77 181.05 92.34 179.26 94.02 C172.64 98.89 164.96 102.18 156.64 101.7 C149.34 100.44 143.47 97.41 138.2 92.27 C136.41 88.7 137.34 85.02 138.2 81.27 C141.62 71.87 147.7 64.27 153.78 56.45 C156.3 53.81 156.3 53.81 156.2 52.27 C152.08 51.26 148.42 50.72 144.2 51.27 C140.49 54.08 137.91 57.52 135.2 61.27 C132.82 64.34 132.82 64.34 130.2 66.27 C128.51 66.32 126.82 66.31 125.13 66.27 C120.25 66.49 118.02 67.9 114.7 71.48 C112.67 73.82 110.66 76.19 108.67 78.57 C99.98 88.58 88.5 98.65 75.02 100.59 C67.14 101.03 59.43 98.19 53.01 93.71 C50.72 91.6 50.24 90.56 49.77 87.44 C49.76 84.68 49.89 82.02 50.2 79.27 C49.05 80.27 47.9 81.27 46.76 82.27 C46.02 82.91 45.29 83.55 44.54 84.21 C43.01 85.55 41.5 86.92 40.01 88.31 C33.45 94.38 26.43 100.54 17.2 101.27 C9.8 99.84 2.41 96.86 -2.8 91.27 C-3.8 88.4 -3.8 88.4 -3.8 86.27 C-10.03 92.3 -15.71 98.84 -21.37 105.4 C-22.51 106.69 -23.65 107.99 -24.8 109.27 C-25.37 109.92 -25.94 110.57 -26.52 111.23 C-34.33 119.61 -44.32 127.1 -55.98 128.25 C-61.42 128.3 -66.27 128.16 -70.76 124.82 C-73.49 121.98 -74.68 119.92 -75.43 116.02 C-73.87 106.67 -69.49 98.16 -65.12 89.84 C-64.56 88.77 -64 87.7 -63.43 86.6 C-57.36 75.16 -50.62 64.15 -43.8 53.14 C-41.2 48.93 -38.67 44.69 -36.16 40.42 C-31.12 31.88 -25.79 23.54 -20.3 15.27 C-19.62 14.24 -18.94 13.21 -18.23 12.14 C-17.59 11.17 -16.94 10.21 -16.27 9.21 C-15.7 8.35 -15.13 7.5 -14.54 6.61 C-9.97 0.45 -7.5 -0.24 0 0 Z " fill="#FCFCFC" transform="translate(527.8046875,662.7265625)"/>
<path d="M0 0 C0.66 0.33 1.32 0.66 2 1 C3.56 1.26 5.12 1.49 6.68 1.68 C8.07 1.87 8.07 1.87 9.49 2.06 C11.45 2.31 13.41 2.56 15.37 2.81 C16.76 2.99 16.76 2.99 18.18 3.18 C19.03 3.29 19.89 3.4 20.76 3.51 C23 4 23 4 26 6 C25.87 6.74 25.74 7.47 25.61 8.23 C24.6 14.4 24.6 14.4 26.94 19.94 C34.65 25.13 41.59 28.06 51 27 C59.98 24.71 66.36 19.68 73.09 13.62 C74.91 11.98 76.78 10.38 78.7 8.86 C80.69 7.25 82.23 5.74 83.81 3.75 C84.53 2.84 85.26 1.93 86 1 C101.38 5.66 114.15 16.47 125 28 C125 28.66 125 29.32 125 30 C125.66 30 126.32 30 127 30 C129.46 35.5 129.42 40.24 128 46 C126.24 50.14 124.2 54.08 122 58 C121.34 58 120.68 58 120 58 C119.74 58.58 119.49 59.16 119.23 59.75 C114.68 68.08 105.87 73.87 97.06 76.81 C87.91 79.24 80.52 78.21 72 74 C68.81 71.87 65.91 69.5 63 67 C61.99 66.24 60.98 65.47 59.94 64.69 C59.3 64.13 58.66 63.57 58 63 C58 62.34 58 61.68 58 61 C56.92 60.57 56.92 60.57 55.81 60.12 C54.08 59.43 52.37 58.69 50.69 57.88 C45.57 56.21 41.01 56.28 36.12 58.44 C32.73 60.29 30.16 62.64 27.38 65.31 C17.52 74.43 6.32 78.65 -7 79 C-8.89 78.76 -10.79 78.52 -12.67 78.25 C-17.66 77.72 -22.68 77.86 -27.69 77.88 C-28.8 77.87 -29.92 77.87 -31.06 77.86 C-32.14 77.86 -33.22 77.87 -34.32 77.87 C-35.78 77.87 -35.78 77.87 -37.26 77.87 C-39.95 78 -42.38 78.45 -45 79 C-47.33 79.04 -49.67 79.05 -52 79 C-51.46 72.5 -50.2 66.81 -48.19 60.62 C-45.73 52.82 -43.8 45.04 -42.29 37 C-41.61 33.44 -41.04 31.06 -39 28 C-39.66 27.67 -40.32 27.34 -41 27 C-40.29 26.83 -39.57 26.66 -38.84 26.48 C-37.88 26.24 -36.92 26 -35.94 25.75 C-35 25.52 -34.06 25.29 -33.09 25.05 C-20.12 20.65 -9.21 9.77 0 0 Z " fill="#000000" transform="translate(641,736)"/>
<path d="M0 0 C0.99 0.5 0.99 0.5 2 1 C1.35 1.67 1.35 1.67 0.68 2.36 C-6.96 10.61 -11.11 18.84 -13.27 29.86 C-13.97 32.89 -14.96 35.43 -16.25 38.25 C-18.74 44.09 -18.18 48.91 -15.95 54.76 C-15.63 55.5 -15.32 56.24 -15 57 C-25.94 62.47 -25.94 62.47 -28.26 63.63 C-30.31 64.66 -32.37 65.69 -34.42 66.73 C-46.17 72.65 -58.05 78.27 -69.96 83.87 C-94.94 94.14 -94.94 94.14 -113 113 C-115.75 114.31 -115.75 114.31 -119 115 C-121.62 113.69 -121.62 113.69 -124 112 C-127.6 110.68 -131.2 110.86 -135 111 C-136.71 112.71 -136.23 115 -136.32 117.35 C-136.36 118.43 -136.4 119.51 -136.44 120.62 C-136.48 121.76 -136.52 122.89 -136.56 124.06 C-136.61 125.2 -136.65 126.34 -136.69 127.52 C-136.8 130.34 -136.9 133.17 -137 136 C-138.9 136.08 -140.79 136.14 -142.69 136.19 C-143.74 136.22 -144.8 136.26 -145.89 136.29 C-150.81 135.83 -153.27 133.76 -156.62 130.25 C-161.95 123.33 -163.06 116.9 -162.31 108.22 C-160.73 97.06 -156.73 86.17 -152 76 C-151.41 74.67 -150.83 73.33 -150.25 72 C-146.97 64.61 -143.46 57.31 -140 50 C-139.34 50 -138.68 50 -138 50 C-137.81 48.72 -137.63 47.44 -137.44 46.12 C-137.33 45.41 -137.23 44.69 -137.12 43.95 C-136.83 41.92 -136.83 41.92 -138 40 C-136.79 39.49 -135.58 38.98 -134.34 38.46 C-130.04 36.66 -125.75 34.85 -121.46 33.03 C-119.37 32.16 -117.28 31.28 -115.18 30.41 C-104.85 26.08 -94.89 21.06 -84.95 15.9 C-84.3 15.57 -83.66 15.24 -83 14.9 C-81.23 13.99 -79.46 13.07 -77.7 12.15 C-76.36 11.58 -76.36 11.58 -75 11 C-74.01 11.5 -74.01 11.5 -73 12 C-72.97 14.1 -72.95 16.21 -72.94 18.31 C-72.93 19.48 -72.91 20.66 -72.9 21.86 C-73 25 -73 25 -74 28 C-73.34 28 -72.68 28 -72 28 C-72 29.32 -72 30.64 -72 32 C-63.85 34.61 -55.91 32.26 -48.4 28.81 C-45.72 27.42 -43.07 25.98 -40.44 24.5 C-39.48 23.97 -38.53 23.45 -37.55 22.9 C-30.09 18.73 -22.92 14.21 -15.8 9.5 C-12.27 7.16 -8.69 4.93 -5.06 2.75 C-4.13 2.19 -3.19 1.63 -2.22 1.05 C-1.49 0.7 -0.76 0.36 0 0 Z " fill="#81240F" transform="translate(388,705)"/>
<path d="M0 0 C1.27 2.54 0.84 3.94 0.56 6.75 C0.56 9.67 0.58 11.39 2.25 13.82 C8.37 18.87 16.51 20.8 24 23 C20.21 41.27 15.15 59.05 9.1 76.7 C7.95 79.58 7.95 79.58 8 81 C7.39 81.04 6.77 81.07 6.14 81.11 C5.33 81.18 4.52 81.24 3.69 81.31 C2.89 81.37 2.09 81.43 1.26 81.49 C-1.45 82.1 -2.36 82.78 -4 85 C-4.65 87.08 -5 89.12 -5.38 91.26 C-5.58 91.83 -5.79 92.41 -6 93 C-7.49 93.5 -7.49 93.5 -9 94 C-13.02 87.91 -16.11 81.69 -19 75 C-22.13 75.68 -22.13 75.68 -23.26 78.15 C-23.66 79.07 -24.07 80 -24.48 80.95 C-24.92 81.97 -25.36 82.98 -25.82 84.02 C-26.27 85.09 -26.72 86.15 -27.19 87.25 C-27.65 88.3 -28.11 89.35 -28.59 90.43 C-31.13 95.86 -31.13 95.86 -31.95 101.67 C-31.96 102.44 -31.98 103.21 -32 104 C-36.92 108.5 -41.48 110.01 -48 111 C-48.33 110.01 -48.66 109.02 -49 108 C-48 106.66 -47 105.33 -46 104 C-45.42 101.53 -45.42 101.53 -45.31 98.88 C-45.25 97.92 -45.18 96.96 -45.12 95.97 C-44.95 91.65 -44.92 87.33 -45 83 C-49.06 82.02 -52.83 81.77 -57 82 C-60.25 83.72 -60.25 83.72 -61 87 C-61.23 93.09 -61.23 93.09 -60 99 C-61.98 99.5 -61.98 99.5 -64 100 C-65.26 97.49 -65.22 95.49 -65.38 92.69 C-65.83 86.81 -65.83 86.81 -69 82 C-72.58 80.63 -72.58 80.63 -76 80 C-78.31 70.64 -79.95 59.31 -74.94 50.56 C-72.48 47.25 -69.55 44.61 -66.39 41.99 C-63.43 39.53 -60.59 36.96 -57.75 34.38 C-57.24 33.92 -56.74 33.46 -56.21 32.99 C-52.12 29.27 -48 25.27 -46 20 C-46.33 19.34 -46.66 18.68 -47 18 C-46.36 18.2 -45.72 18.41 -45.06 18.62 C-42.38 19.45 -39.7 20.23 -37 21 C-35.85 21.33 -34.69 21.66 -33.5 22 C-23 22 -13.94 12.76 -6.82 5.9 C-5.65 4.72 -4.49 3.52 -3.34 2.31 C-2 1 -2 1 0 0 Z " fill="#81240F" transform="translate(578,741)"/>
<path d="M0 0 C5 5.83 5 5.83 5 10 C-2.6 9.69 -9.87 9.16 -17.31 7.56 C-71.5 -3.81 -133.88 7.59 -186 24 C-187.15 24.36 -187.15 24.36 -188.32 24.73 C-195.21 26.92 -202.02 29.28 -208.7 32.05 C-210.22 32.68 -211.76 33.28 -213.3 33.86 C-226.84 38.94 -241.16 46.24 -251 57 C-253.71 59.71 -256.61 59.94 -260.25 60.62 C-261.23 60.83 -261.23 60.83 -262.24 61.03 C-266.21 61.81 -269.96 62.14 -274 62 C-275.22 58.5 -274.77 56.48 -273.57 53.02 C-273.25 52.08 -272.93 51.15 -272.6 50.18 C-272.09 48.73 -272.09 48.73 -271.56 47.25 C-271.22 46.27 -270.89 45.28 -270.54 44.27 C-269.7 41.84 -268.85 39.42 -268 37 C-267.34 37 -266.68 37 -266 37 C-266.5 35.51 -266.5 35.51 -267 34 C-245.22 15.2 -206.31 7.93 -179 2 C-178.34 1.86 -177.68 1.71 -177 1.56 C-33.73 -29.51 -33.73 -29.51 0 0 Z " fill="#BE3517" transform="translate(399,597)"/>
<path d="M0 0 C1.15 0.24 1.15 0.24 2.33 0.48 C7.79 1.71 12.58 3.39 16.1 8.03 C18.99 17.93 16.8 29.08 12.75 38.25 C12.24 39.4 11.73 40.56 11.21 41.75 C3.5 58.45 -7.4 69.12 -24.25 76.25 C-37.06 79.82 -52.81 75 -64.11 68.95 C-66.71 66.88 -67.4 65.44 -68.25 62.25 C-68.54 56.23 -67.13 51.54 -64.21 46.37 C-63.08 43.88 -62.75 41.65 -62.38 38.94 C-60.6 27.93 -53.94 19.95 -46.25 12.25 C-45.69 11.67 -45.12 11.1 -44.54 10.5 C-31.79 -1.47 -16.36 -3.45 0 0 Z " fill="#FDFDFD" transform="translate(437.25,691.75)"/>
<path d="M0 0 C0 0.66 0 1.32 0 2 C-1.37 3.28 -1.37 3.28 -3.3 4.72 C-4.35 5.52 -4.35 5.52 -5.43 6.34 C-6.2 6.91 -6.96 7.48 -7.75 8.06 C-8.54 8.65 -9.32 9.24 -10.13 9.85 C-11.71 11.04 -13.29 12.22 -14.87 13.4 C-16.57 14.68 -18.25 15.98 -19.92 17.3 C-35.21 29.25 -52.24 39.24 -69 49 C-70.09 49.64 -70.09 49.64 -71.19 50.29 C-86.82 59.48 -102.85 67.8 -119 76 C-119.94 76.48 -120.88 76.96 -121.85 77.45 C-126.38 79.74 -130.92 81.9 -135.62 83.81 C-136.65 84.23 -137.67 84.65 -138.73 85.08 C-139.85 85.54 -139.85 85.54 -141 86 C-140.44 81.23 -138.98 77.34 -136.86 73.07 C-136.54 72.42 -136.22 71.76 -135.89 71.08 C-134.85 68.95 -133.8 66.82 -132.75 64.69 C-132.02 63.2 -131.3 61.72 -130.57 60.24 C-121.89 42.56 -113.04 24.95 -103 8 C-102.5 8.99 -102.5 8.99 -102 10 C-86.54 9.27 -71.43 6.48 -56.22 3.75 C-55.56 3.63 -54.9 3.51 -54.22 3.39 C-52.58 3.1 -50.95 2.81 -49.31 2.5 C-41.68 1.15 -34.1 0.41 -26.38 -0.12 C-25.23 -0.21 -24.08 -0.3 -22.89 -0.39 C-5.01 -1.67 -5.01 -1.67 0 0 Z " fill="#BE3517" transform="translate(380,641)"/>
<path d="M0 0 C6.09 1.29 12.26 1.99 18.45 2.73 C19.96 7.15 18.71 9.87 16.93 14.02 C14.22 18.97 10.39 22.74 6.45 26.73 C5.48 27.76 4.52 28.8 3.55 29.84 C2.58 30.87 1.61 31.89 0.63 32.92 C-0.26 33.86 -1.15 34.8 -2.07 35.77 C-2.89 36.42 -3.71 37.07 -4.55 37.73 C-6.43 37.36 -6.43 37.36 -8.55 36.73 C-26.45 35.68 -45.03 38.06 -62.51 41.71 C-67.89 42.84 -73.3 43.65 -78.74 44.42 C-79.58 44.54 -80.42 44.66 -81.28 44.78 C-90.06 45.99 -98.68 46.87 -107.55 46.73 C-108.55 43.73 -108.55 43.73 -107.34 41.25 C-106.77 40.36 -106.2 39.46 -105.62 38.54 C-105.05 37.64 -104.49 36.74 -103.9 35.81 C-103.24 34.78 -103.24 34.78 -102.55 33.73 C-102.22 34.39 -101.89 35.05 -101.55 35.73 C-94.31 34.52 -87.07 33.3 -79.82 32.08 C-76.46 31.51 -73.09 30.94 -69.72 30.38 C-55.73 28.03 -41.74 25.64 -27.8 23.02 C-26.15 22.72 -26.15 22.72 -24.48 22.41 C-23.48 22.22 -22.47 22.03 -21.44 21.83 C-20.57 21.67 -19.69 21.5 -18.79 21.33 C-16.3 20.79 -16.3 20.79 -13.55 18.73 C-13.88 17.08 -14.21 15.43 -14.55 13.73 C-35.58 7.6 -57.73 6.38 -79.55 7.73 C-79.88 8.06 -80.21 8.39 -80.55 8.73 C-81.96 8.86 -83.37 8.93 -84.78 8.98 C-85.65 9.01 -86.52 9.04 -87.41 9.08 C-89.23 9.14 -91.06 9.19 -92.88 9.25 C-98.12 9.45 -102.5 10.22 -107.55 11.73 C-110.61 12.28 -113.68 12.75 -116.75 13.23 C-154.74 19.19 -193.78 30.01 -226.54 50.6 C-228.55 51.73 -228.55 51.73 -230.55 51.73 C-230.55 51.07 -230.55 50.41 -230.55 49.73 C-233.19 50.06 -235.83 50.39 -238.55 50.73 C-236.47 46.75 -234.43 44.62 -230.68 42.17 C-227.92 40.32 -225.31 38.53 -222.74 36.42 C-219.33 33.78 -215.95 32.84 -211.8 31.73 C-210.73 31.4 -209.66 31.07 -208.55 30.73 C-208.22 30.07 -207.89 29.41 -207.55 28.73 C-205.62 27.8 -205.62 27.8 -203.12 26.86 C-202.2 26.5 -201.28 26.15 -200.34 25.79 C-199.42 25.44 -198.5 25.09 -197.55 24.73 C-196.05 24.11 -194.55 23.48 -193.05 22.86 C-161.58 10.37 -127.66 2.8 -94.08 -0.98 C-91.68 -1.26 -89.28 -1.55 -86.88 -1.86 C-58.19 -5.47 -28.33 -6.6 0 0 Z " fill="#9E2B13" transform="translate(385.5546875,604.26953125)"/>
<path d="M0 0 C3.93 1.66 6.93 4.06 10 7 C10.88 9.81 10.88 9.81 11 12 C11.66 12 12.32 12 13 12 C13.66 20.53 13.12 26.96 8 34 C5.3 37.05 2.4 39.86 -0.57 42.65 C-3.12 44.95 -3.12 44.95 -5 48 C-5.66 48 -6.32 48 -7 48 C-7.2 48.9 -7.39 49.81 -7.6 50.74 C-9.34 54.8 -11.7 56.18 -15.44 58.19 C-19 60.19 -22.11 62.08 -25 65 C-26.58 65.82 -28.19 66.58 -29.81 67.31 C-35.98 70.3 -41.63 73.89 -47.38 77.62 C-55.07 82.6 -62.85 87.33 -70.88 91.75 C-71.77 92.25 -72.67 92.75 -73.59 93.27 C-80.87 97.22 -87.55 99.65 -96 99 C-98.44 98 -98.44 98 -100 97 C-100 95.68 -100 94.36 -100 93 C-100.66 93 -101.32 93 -102 93 C-102.03 90.9 -102.05 88.79 -102.06 86.69 C-102.07 85.52 -102.09 84.34 -102.1 83.14 C-102 80 -102 80 -101 77 C-101.66 76.67 -102.32 76.34 -103 76 C-102.39 75.66 -101.78 75.32 -101.16 74.97 C-94.1 70.99 -87.04 67 -80 63 C-79.2 62.55 -78.4 62.09 -77.58 61.63 C-50.5 46.22 -17.42 26.71 0 0 Z " fill="#BD3416" transform="translate(416,640)"/>
<path d="M0 0 C-0.93 1.75 -1.87 3.5 -2.81 5.25 C-3.33 6.22 -3.86 7.2 -4.39 8.2 C-4.92 9.13 -5.45 10.05 -6 11 C-6.42 11.74 -6.83 12.48 -7.26 13.24 C-9.85 15.86 -12.5 16.11 -16.06 16.88 C-24.31 18.83 -30.52 22.02 -37 27.56 C-40.02 32.76 -40.35 38.09 -41 44 C-42.12 54.02 -44.52 63.16 -52.12 70.31 C-62.79 78.48 -73.8 81 -87 80 C-101.82 77.39 -114.09 67.88 -123.19 56.19 C-125.21 53.74 -127.26 52.56 -130 51 C-128.11 28.04 -128.11 28.04 -126.27 19.83 C-125.81 17.91 -125.81 17.91 -127 16 C-119.25 14.88 -119.25 14.88 -117 16 C-116.79 18.29 -116.69 20.58 -116.62 22.88 C-116.02 35.45 -111.66 44.34 -102.75 53.25 C-95.4 57.93 -86.89 62.17 -78 61 C-73.73 59.47 -69.94 57.52 -67 54 C-64.69 48.68 -63.81 43.02 -63.06 37.31 C-61.66 27.49 -57.01 22.09 -49.31 16 C-38.05 7.84 -13.98 -3.64 0 0 Z " fill="#BE3517" transform="translate(244,662)"/>
<path d="M0 0 C0.75 0.4 1.51 0.8 2.28 1.21 C12.14 6.12 22.2 9.21 33.36 8.95 C37 9 37 9 39 11 C38.79 13.07 38.58 15.13 38.32 17.19 C36.96 29.09 37.92 38.11 45 48 C48.93 51.65 52.91 54.3 58 56 C59.17 58.35 59.12 59.74 59.1 62.35 C59.09 63.2 59.09 64.05 59.09 64.93 C59.08 65.82 59.07 66.71 59.06 67.62 C59.06 68.52 59.05 69.42 59.05 70.34 C59.04 72.56 59.02 74.78 59 77 C58.67 76.34 58.34 75.68 58 75 C55.82 73.75 53.69 72.89 51.31 72.06 C50.55 71.71 49.79 71.36 49 71 C48.67 70.01 48.34 69.02 48 68 C51.44 65.71 52.99 65.82 57 66 C55.16 63.73 55.16 63.73 52.4 63.8 C51.4 63.83 50.4 63.85 49.38 63.88 C48.37 63.89 47.37 63.91 46.34 63.93 C45.18 63.96 45.18 63.96 44 64 C44 65.98 44 67.96 44 70 C42.68 70 41.36 70 40 70 C40 69.34 40 68.68 40 68 C39.34 68 38.68 68 38 68 C37.59 67.38 37.18 66.76 36.75 66.12 C35.13 63.72 35.13 63.72 32.06 63.31 C28.62 61.84 28.33 61.37 26.81 58.12 C26.17 56.43 25.57 54.72 25 53 C24.72 52.2 24.45 51.4 24.16 50.58 C21.71 42.32 21.3 33.84 20.82 25.28 C20.76 24.27 20.69 23.26 20.62 22.22 C20.58 21.31 20.53 20.4 20.48 19.47 C19.93 16.62 18.89 15.16 17 13 C10.32 13.42 5.79 15.3 0 18.56 C-1.7 19.49 -3.4 20.41 -5.1 21.33 C-6.36 22.02 -6.36 22.02 -7.63 22.72 C-13.67 25.99 -19.84 28.98 -26 32 C-27.08 32.53 -28.16 33.06 -29.28 33.61 C-33.04 35.46 -36.8 37.29 -40.56 39.12 C-41.2 39.43 -41.83 39.74 -42.49 40.06 C-49.48 43.46 -56.46 46.74 -63.75 49.44 C-70.41 51.96 -76.32 55.32 -80.58 61.16 C-82 63 -82 63 -84.5 63.75 C-87.51 65.26 -87.68 66.06 -88.81 69.12 C-89.23 70.41 -89.63 71.7 -90 73 C-92 72 -92 72 -92.85 69.71 C-93.11 68.8 -93.36 67.88 -93.62 66.94 C-94.02 65.56 -94.02 65.56 -94.41 64.15 C-94.61 63.44 -94.8 62.73 -95 62 C-94.34 61.34 -93.68 60.68 -93 60 C-94.32 59.01 -95.64 58.02 -97 57 C-87.83 45.24 -75.75 39.04 -62.56 32.81 C-61.01 32.07 -59.46 31.33 -57.91 30.58 C-47.12 25.41 -36.25 20.41 -25.37 15.42 C-16.64 11.39 -8.24 6.95 0 2 C0 1.34 0 0.68 0 0 Z " fill="#BE3517" transform="translate(372,759)"/>
<path d="M0 0 C-0.55 3.95 -1.39 7.35 -3 11 C-3.66 11 -4.32 11 -5 11 C-5.18 11.58 -5.36 12.16 -5.55 12.76 C-7.05 17.4 -8.74 21.66 -11 26 C-11.72 27.66 -12.43 29.33 -13.13 31 C-13.74 32.41 -14.4 33.79 -15.09 35.15 C-21.43 47.98 -27.52 64.53 -25 79 C-23.17 84.4 -20.6 89.47 -16 93 C-12.84 94.05 -10.13 94.31 -6.81 94.56 C-5.79 94.64 -4.76 94.72 -3.7 94.8 C-2.81 94.86 -1.92 94.93 -1 95 C-1.02 93.93 -1.02 93.93 -1.03 92.83 C-1.07 89.59 -1.1 86.36 -1.12 83.12 C-1.14 82 -1.16 80.87 -1.18 79.71 C-1.19 78.09 -1.19 78.09 -1.2 76.45 C-1.21 74.95 -1.21 74.95 -1.23 73.43 C-1 71 -1 71 1 69 C6.64 68.45 10.05 69.62 15 72 C17.93 73.34 17.93 73.34 20.44 72 C23.23 70.91 24.25 70.98 27 72 C27 72.99 27 73.98 27 75 C26.34 75 25.68 75 25 75 C25 75.66 25 76.32 25 77 C24.34 77 23.68 77 23 77 C23.08 78.21 23.16 79.41 23.25 80.66 C23.94 95.21 23.94 95.21 20.12 99.69 C18.2 101.39 18.2 101.39 16 103 C14.79 103.98 14.79 103.98 13.55 104.98 C8.73 108.67 5.18 110.65 -1 111 C-2.13 111.35 -3.27 111.7 -4.44 112.06 C-11.33 113.88 -16.68 113.5 -23 110 C-23.73 109.61 -24.47 109.22 -25.23 108.82 C-33.24 104.09 -37.67 96.95 -40 88 C-42.67 62.72 -33.46 40.94 -22.66 18.71 C-20.81 14.87 -19.25 11.09 -18 7 C-18.66 6.67 -19.32 6.34 -20 6 C-17.61 4.99 -15.21 3.99 -12.81 3 C-11.8 2.57 -11.8 2.57 -10.77 2.13 C-7.05 0.61 -4.04 -0.38 0 0 Z " fill="#BE3517" transform="translate(252,746)"/>
<path d="M0 0 C0.99 0.66 1.98 1.32 3 2 C3.76 2.06 4.53 2.12 5.31 2.19 C8.89 3.27 10 5.18 12.28 8.05 C14.13 10.15 16.07 11.7 18.31 13.38 C28.71 21.27 39.02 32.2 43 45 C44.42 56.83 41.78 67.23 34.69 76.81 C33.8 77.88 32.9 78.94 32 80 C30.86 79.39 29.73 78.77 28.55 78.14 C24.18 75.96 19.9 74.74 15.12 73.75 C13.94 73.5 13.94 73.5 12.73 73.24 C2.97 71.26 -5.28 71.93 -15 74 C-13.02 68.64 -9.98 65.81 -5.85 62.04 C2.65 53.99 6.41 47.04 6.96 35.27 C6.97 34.52 6.99 33.77 7 33 C6.34 33 5.68 33 5 33 C4.65 32.13 4.3 31.27 3.94 30.38 C1.58 26.27 -1.3 23.86 -5 21 C-3.21 15.38 -3.21 15.38 -1.97 13.16 C-0.77 10.48 -0.58 8.17 -0.38 5.25 C-0.3 4.27 -0.23 3.28 -0.15 2.27 C-0.1 1.52 -0.05 0.77 0 0 Z " fill="#9E2B13" transform="translate(422,619)"/>
<path d="M0 0 C-0.93 1.8 -1.87 3.59 -2.81 5.38 C-3.33 6.37 -3.86 7.37 -4.39 8.4 C-6 11 -6 11 -9 13 C-10.92 13.32 -10.92 13.32 -13.09 13.46 C-18.14 13.93 -22.78 15.14 -27.62 16.62 C-28.49 16.89 -29.36 17.15 -30.25 17.42 C-44.57 21.92 -60.28 28.09 -68.04 41.84 C-69.77 45.97 -70.37 50.14 -71 54.56 C-71.93 61.06 -72.77 66.27 -77.88 70.81 C-83.09 74.46 -87.59 76.04 -94 75 C-105.82 71.1 -115.49 65.18 -121.31 53.88 C-124.13 47.94 -125.29 42.69 -125.12 36.12 C-125.11 35.09 -125.11 35.09 -125.1 34.04 C-125.07 32.36 -125.04 30.68 -125 29 C-125.66 28.67 -126.32 28.34 -127 28 C-125.04 27.47 -123.09 26.95 -121.12 26.44 C-120.03 26.15 -118.94 25.86 -117.82 25.56 C-115 25 -115 25 -113 26 C-111.91 29.28 -112.06 31.36 -112.62 34.81 C-113.27 39.51 -112.47 42.95 -110 47 C-107.1 50.58 -104.19 53.43 -99.65 54.61 C-95.46 54.86 -93.77 54.65 -90.46 51.84 C-87.96 48.96 -86.14 46.12 -84.25 42.81 C-78.48 33.1 -71.76 25.72 -62 20 C-61.19 19.49 -60.39 18.98 -59.56 18.46 C-57.01 17.01 -54.58 16.02 -51.81 15.06 C-48.27 13.84 -44.8 12.52 -41.33 11.1 C-35.94 8.93 -30.47 7.12 -24.94 5.38 C-24.01 5.08 -23.08 4.78 -22.12 4.47 C-6.68 -0.43 -6.68 -0.43 0 0 Z " fill="#9E2B13" transform="translate(252,649)"/>
<path d="M0 0 C5 2 5 2 10 4 C10 4.66 10 5.32 10 6 C10.66 6 11.32 6 12 6 C12.66 8.64 13.32 11.28 14 14 C14.33 14 14.66 14 15 14 C15.1 12.89 15.21 11.77 15.31 10.62 C15.54 9.43 15.77 8.23 16 7 C16.99 6.34 17.98 5.68 19 5 C19.99 5.99 20.98 6.98 22 8 C22.33 7.01 22.66 6.02 23 5 C25.75 4.62 25.75 4.62 29 5 C33.83 9.83 33.77 15.42 34 22 C35.32 22.33 36.64 22.66 38 23 C37.67 22.5 37.34 22.01 37 21.5 C35.6 18 35.51 14.69 36 11 C38.14 6.43 38.14 6.43 41 5 C45.83 4.72 49.5 5.24 54 7 C54.38 26.31 54.38 26.31 50.5 31.06 C49.67 31.7 48.85 32.34 48 33 C47.5 33.99 47.5 33.99 47 35 C45.68 35 44.36 35 43 35 C43 35.66 43 36.32 43 37 C32.19 40.6 19.9 37.92 10 33 C7.14 30.87 4.34 28.71 2 26 C2 25.34 2 24.68 2 24 C2.66 23.67 3.32 23.34 4 23 C3.01 22.57 2.02 22.13 1 21.69 C-0.66 20.62 -0.66 20.62 -2 19 C-2.54 15.29 -2.35 11.73 -2 8 C-0.35 8 1.3 8 3 8 C1.74 5.49 0.5 5.13 -2 4 C-1.34 2.68 -0.68 1.36 0 0 Z " fill="#BE3517" transform="translate(480,817)"/>
<path d="M0 0 C0.99 0.5 0.99 0.5 2 1 C1.58 1.42 1.15 1.83 0.71 2.26 C-4.38 7.61 -7.16 13.27 -9.93 20.02 C-12 23 -12 23 -15.78 24.13 C-16.48 24.25 -17.18 24.38 -17.91 24.51 C-21.47 25.35 -24.13 27.45 -27.06 29.56 C-28.37 30.47 -29.68 31.37 -30.99 32.27 C-31.65 32.73 -32.32 33.18 -33 33.65 C-61.24 52.69 -61.24 52.69 -75 51 C-80.18 49.33 -83.97 46.72 -86.94 42.12 C-90.34 35.18 -91 26.65 -91 19 C-88.38 17.64 -85.75 16.28 -83.12 14.94 C-82.38 14.55 -81.63 14.16 -80.86 13.76 C-79.79 13.21 -79.79 13.21 -78.7 12.65 C-78.04 12.31 -77.38 11.97 -76.7 11.62 C-76.14 11.42 -75.58 11.21 -75 11 C-74.34 11.33 -73.68 11.66 -73 12 C-72.97 14.1 -72.95 16.21 -72.94 18.31 C-72.93 19.48 -72.91 20.66 -72.9 21.86 C-73 25 -73 25 -74 28 C-73.34 28 -72.68 28 -72 28 C-72 29.32 -72 30.64 -72 32 C-63.85 34.61 -55.91 32.26 -48.4 28.81 C-45.72 27.42 -43.07 25.98 -40.44 24.5 C-39.01 23.71 -39.01 23.71 -37.55 22.9 C-30.09 18.73 -22.92 14.21 -15.8 9.5 C-12.27 7.16 -8.69 4.93 -5.06 2.75 C-4.13 2.19 -3.19 1.63 -2.22 1.05 C-1.12 0.53 -1.12 0.53 0 0 Z " fill="#9E2B13" transform="translate(388,705)"/>
<path d="M0 0 C1.5 0.01 3.01 0.02 4.51 0.03 C10.55 0.09 16.42 0.17 22.38 1.31 C20.74 7.32 19.1 13.33 17.38 19.31 C16.45 19.37 16.45 19.37 15.51 19.43 C14.3 19.52 14.3 19.52 13.06 19.62 C12.26 19.68 11.46 19.74 10.64 19.8 C7.93 20.41 7.02 21.09 5.38 23.31 C4.73 25.39 4.38 27.43 4 29.57 C3.79 30.15 3.59 30.72 3.38 31.31 C2.38 31.64 1.39 31.97 0.38 32.31 C-3.64 26.23 -6.73 20.01 -9.62 13.31 C-12.75 13.99 -12.75 13.99 -13.88 16.46 C-14.29 17.38 -14.69 18.31 -15.11 19.27 C-15.55 20.28 -15.99 21.29 -16.44 22.33 C-16.9 23.4 -17.35 24.46 -17.81 25.56 C-18.51 27.14 -18.51 27.14 -19.22 28.75 C-21.75 34.17 -21.75 34.17 -22.57 39.99 C-22.59 40.75 -22.61 41.52 -22.62 42.31 C-27.55 46.82 -32.11 48.32 -38.62 49.31 C-39.12 47.83 -39.12 47.83 -39.62 46.31 C-38.63 44.98 -37.63 43.64 -36.62 42.31 C-35.87 38.68 -35.78 35.01 -35.62 31.31 C-35.58 30.37 -35.54 29.42 -35.5 28.44 C-35.4 24.87 -35.4 24.87 -35.62 21.31 C-36.28 20.65 -36.95 19.99 -37.62 19.31 C-36.97 18.69 -36.3 18.08 -35.62 17.44 C-32.32 14.19 -29.69 10.46 -26.98 6.71 C-19.26 -1.16 -10.22 -0.2 0 0 Z " fill="#9E2B13" transform="translate(568.625,802.6875)"/>
<path d="M0 0 C1.81 0.5 1.81 0.5 4 2 C4.87 3.9 4.87 3.9 5.64 6.09 C5.9 6.82 6.15 7.55 6.42 8.3 C6.61 8.86 6.8 9.42 7 10 C-3.94 15.47 -3.94 15.47 -6.26 16.63 C-8.31 17.66 -10.37 18.69 -12.42 19.73 C-24.17 25.65 -36.05 31.27 -47.96 36.87 C-72.94 47.14 -72.94 47.14 -91 66 C-93.62 67.38 -93.62 67.38 -97 68 C-99.64 66.96 -101.63 65.61 -104 64 C-100.75 56.72 -95.25 52.74 -89 48 C-88.31 47.46 -87.62 46.93 -86.91 46.38 C-84.98 44.99 -83.04 43.86 -80.94 42.75 C-77.32 40.78 -73.84 38.66 -70.38 36.44 C-58.78 29 -58.78 29 -55 29 C-54.5 27.51 -54.5 27.51 -54 26 C-52.35 24.82 -52.35 24.82 -50.2 23.7 C-49.42 23.28 -48.63 22.86 -47.82 22.44 C-46.55 21.79 -46.55 21.79 -45.25 21.12 C-44.38 20.67 -43.51 20.22 -42.61 19.76 C-37.06 16.93 -31.49 14.53 -25.62 12.42 C-20.55 10.43 -15.66 8.1 -10.75 5.75 C-9.81 5.3 -8.86 4.85 -7.89 4.39 C-3.67 2.61 -3.67 2.61 0 0 Z " fill="#9E2B13" transform="translate(366,752)"/>
<path d="M0 0 C-0.52 1.23 -0.52 1.23 -1.06 2.48 C-1.51 3.56 -1.97 4.64 -2.44 5.75 C-2.89 6.82 -3.34 7.88 -3.81 8.98 C-5.71 13.81 -6.54 17.77 -6 23 C-3.38 27.33 -1.6 29.13 3.31 30.38 C4.53 30.58 5.75 30.79 7 31 C7 32.65 7 34.3 7 36 C-2.77 43.03 -14.33 42.15 -25.72 40.44 C-30.04 39.32 -32.95 38.24 -35.87 34.79 C-38.45 30.25 -39.76 26.1 -38.64 20.94 C-37.46 17.38 -35.94 14.21 -34 11 C-33.38 9.95 -32.76 8.9 -32.12 7.81 C-27.95 3.04 -20.85 1.77 -15 0 C-14.19 -0.27 -13.39 -0.54 -12.55 -0.82 C-7.64 -2.34 -4.66 -1.75 0 0 Z " fill="#81240F" transform="translate(460,759)"/>
<path d="M0 0 C3.62 1.21 4.52 2.79 6.25 6.11 C7.5 9.27 7.23 10.83 6 14 C3.93 16.94 1.54 19.46 -1 22 C-1.98 23 -1.98 23 -2.98 24.02 C-17.06 37.47 -42.56 58.65 -63 59 C-66.07 57.16 -66.82 54.28 -68 51 C-68.33 50.34 -68.66 49.68 -69 49 C-68.12 48.54 -67.25 48.07 -66.34 47.59 C-42.73 34.83 -19.07 19.07 0 0 Z " fill="#DB3F1A" transform="translate(403,655)"/>
<path d="M0 0 C0 0.66 0 1.32 0 2 C-0.66 2 -1.32 2 -2 2 C-2.07 2.68 -2.14 3.35 -2.21 4.05 C-3.25 7.95 -5.35 10.93 -7.56 14.25 C-16.86 28.68 -24.72 44.85 -27 62 C-27.33 62.99 -27.66 63.98 -28 65 C-28.5 70.67 -28.75 75.39 -25 80 C-22.6 82.73 -22.6 82.73 -16 84 C-16 89.28 -16 94.56 -16 100 C-28.34 100.41 -28.34 100.41 -33 97 C-39.68 90 -41.69 83.89 -41.49 74.23 C-40.47 62.42 -35.96 50.66 -31 40 C-30.41 38.67 -29.83 37.33 -29.25 36 C-25.97 28.61 -22.46 21.31 -19 14 C-18.34 14 -17.68 14 -17 14 C-16.81 12.72 -16.63 11.44 -16.44 10.12 C-16.33 9.41 -16.23 8.69 -16.12 7.95 C-15.83 5.92 -15.83 5.92 -17 4 C-15.11 3.13 -13.21 2.28 -11.31 1.44 C-10.26 0.96 -9.2 0.49 -8.11 -0 C-4.83 -1.05 -3.24 -1 0 0 Z " fill="#9E2B13" transform="translate(267,741)"/>
<path d="M0 0 C3.03 4.54 2.64 8.67 2 14 C-3.11 31.62 -16.51 51.6 -31 63 C-33.79 63.77 -33.79 63.77 -36 64 C-38.17 61.67 -38.98 60.49 -39.1 57.26 C-37.33 45.62 -33.53 35.32 -24 28 C-23.34 27.34 -22.68 26.68 -22 26 C-24.01 22.99 -24.84 22.37 -28 21 C-23.15 11.49 -11.9 -2.48 0 0 Z " fill="#9E2B13" transform="translate(430,698)"/>
<path d="M0 0 C1.44 0.43 2.88 0.87 4.31 1.31 C5.11 1.56 5.91 1.8 6.74 2.05 C9.16 3.07 10.41 3.93 12 6 C12.66 11.5 11.53 14.64 8.69 19.31 C8.34 19.9 7.99 20.48 7.63 21.09 C5.51 24.62 3.31 28.1 1.12 31.59 C0.39 32.77 0.39 32.77 -0.35 33.97 C-1.3 35.49 -2.26 37.01 -3.23 38.52 C-5.58 42.27 -7.21 45.49 -8.29 49.79 C-9.1 52.44 -9.56 53.67 -11.79 55.35 C-14.02 56.41 -16.22 57.23 -18.56 58 C-19.34 58.28 -20.12 58.57 -20.93 58.86 C-22.37 59.39 -23.81 59.9 -25.26 60.39 C-27.08 60.99 -27.08 60.99 -29 62 C-28.44 57.2 -26.95 53.29 -24.82 49 C-24.34 48.01 -24.34 48.01 -23.85 47 C-22.8 44.85 -21.75 42.7 -20.69 40.56 C-19.96 39.08 -19.24 37.61 -18.52 36.13 C-12.56 23.97 -6.38 11.94 0 0 Z " fill="#DB3F1A" transform="translate(268,665)"/>
<path d="M0 0 C0 0.33 0 0.66 0 1 C-1.29 1.29 -1.29 1.29 -2.6 1.59 C-3.74 1.85 -4.88 2.11 -6.06 2.38 C-7.75 2.76 -7.75 2.76 -9.47 3.15 C-30.39 8.2 -51.67 15.52 -71 25 C-72.35 25.64 -73.71 26.28 -75.07 26.92 C-87.47 32.84 -99.68 39.7 -110.11 48.72 C-112.37 50.25 -114.31 50.62 -117 51 C-116.45 46.43 -115.58 42.33 -114 38 C-113.34 38 -112.68 38 -112 38 C-112.5 36.51 -112.5 36.51 -113 35 C-91.06 16.06 -52.59 9.17 -25 3 C-23.79 2.72 -22.58 2.45 -21.33 2.16 C-20.1 1.89 -18.87 1.61 -17.61 1.33 C-16.5 1.08 -15.39 0.83 -14.24 0.57 C-9.48 -0.27 -4.82 -0.27 0 0 Z " fill="#DA3E19" transform="translate(245,596)"/>
<path d="M0 0 C0 0.66 0 1.32 0 2 C0.66 2 1.32 2 2 2 C4.46 9.38 2.32 15.32 -1 22 C-2.53 24.56 -4.09 26.69 -6 29 C-6.66 29 -7.32 29 -8 29 C-8 29.66 -8 30.32 -8 31 C-11.54 33.6 -14.62 34.73 -19 35 C-22.15 34.05 -24.24 32.84 -27 31 C-29.25 25.5 -29.32 20.78 -28 15 C-26.44 11.44 -26.44 11.44 -25 9 C-24.34 9 -23.68 9 -23 9 C-22.76 8.4 -22.52 7.79 -22.27 7.17 C-20.72 4.53 -19.32 3.73 -16.62 2.31 C-15.47 1.69 -15.47 1.69 -14.29 1.05 C-9.83 -0.99 -4.58 -2.29 0 0 Z " fill="#000000" transform="translate(1024,847)"/>
<path d="M0 0 C0.66 0.33 1.32 0.66 2 1 C2 1.66 2 2.32 2 3 C2.66 3 3.32 3 4 3 C1.31 8.99 -3.78 12.98 -8.69 17.19 C-12.27 20.26 -15.57 23.57 -18.88 26.94 C-29.92 38.1 -29.92 38.1 -35 41 C-37.28 40.7 -37.28 40.7 -39 40 C-34.33 24.42 -22.9 9.89 -9.21 1.09 C-6.03 -0.48 -3.47 -0.5 0 0 Z " fill="#9E2C14" transform="translate(588,707)"/>
<path d="M0 0 C0.56 0.29 1.11 0.58 1.69 0.88 C7.12 3.52 10.97 4.44 17 4 C15.71 6.79 14.3 9.01 12.28 11.32 C11.74 11.93 11.21 12.55 10.66 13.18 C10.09 13.82 9.52 14.46 8.94 15.12 C8.35 15.79 7.76 16.46 7.16 17.15 C5.44 19.11 3.72 21.05 2 23 C0.79 24.38 0.79 24.38 -0.44 25.79 C-6.35 32.47 -12.65 38.74 -19 45 C-19.66 44.34 -20.32 43.68 -21 43 C-20.66 38.74 -19.46 35.41 -17.56 31.62 C-17.06 30.62 -16.56 29.62 -16.05 28.6 C-15.52 27.55 -14.99 26.51 -14.44 25.44 C-13.63 23.84 -13.63 23.84 -12.81 22.21 C-8.9 14.55 -4.75 7.16 0 0 Z " fill="#BE3618" transform="translate(500,730)"/>
<path d="M0 0 C2.21 3.31 2.3 4.51 2.31 8.38 C2.34 9.78 2.34 9.78 2.36 11.21 C1.92 14.6 1.1 16.31 -1 19 C-3.81 20.95 -3.81 20.95 -7 22.69 C-8.05 23.27 -9.1 23.85 -10.19 24.45 C-11.58 25.22 -11.58 25.22 -13 26 C-13.99 26.66 -14.98 27.32 -16 28 C-17.32 28 -18.64 28 -20 28 C-20 27.34 -20 26.68 -20 26 C-20.99 25.67 -21.98 25.34 -23 25 C-23.33 24.34 -23.66 23.68 -24 23 C-26.02 21.87 -26.02 21.87 -28 21 C-23.15 11.49 -11.9 -2.48 0 0 Z " fill="#81240F" transform="translate(430,698)"/>
<path d="M0 0 C-0.33 0.99 -0.66 1.98 -1 3 C-2.32 2.34 -3.64 1.68 -5 1 C-4.96 1.78 -4.92 2.57 -4.88 3.38 C-5 6 -5 6 -7 8 C-7 8.66 -7 9.32 -7 10 C-6.34 10 -5.68 10 -5 10 C-5 12.64 -5 15.28 -5 18 C-6.83 17.78 -6.83 17.78 -9 17 C-10.45 14.97 -10.45 14.97 -11.69 12.5 C-13.06 9.55 -13.06 9.55 -15 7 C-19.71 6.49 -19.71 6.49 -23.81 8.38 C-24.2 8.91 -24.6 9.45 -25 10 C-25.66 10.66 -26.32 11.32 -27 12 C-27.46 13.97 -27.46 13.97 -27.62 16.12 C-27.75 17.4 -27.87 18.68 -28 20 C-28.99 20.33 -29.98 20.66 -31 21 C-33.26 19.6 -35.02 17.8 -37 16 C-36.46 12.2 -34.8 10.53 -32 8 C-36.37 8 -36.75 8.23 -39.75 11 C-40.36 11.56 -40.98 12.11 -41.61 12.69 C-42.07 13.12 -42.53 13.55 -43 14 C-45 12 -45 12 -45.27 9.69 C-45.26 8.8 -45.26 7.91 -45.25 7 C-45.26 6.11 -45.26 5.23 -45.27 4.31 C-45 2 -45 2 -43 0 C-42.67 0.33 -42.34 0.66 -42 1 C-33.54 3.36 -25.63 1 -17.44 -1.26 C-10.91 -3.01 -6.08 -3.51 0 0 Z " fill="#BE3517" transform="translate(479,816)"/>
<path d="M0 0 C4.38 0.36 7.04 1.03 10.81 3.31 C13.39 6.75 14.62 10.16 15.31 14.38 C14.61 18.49 13.2 20.87 10.81 24.31 C7.6 26.45 4.93 26.56 1.12 26.5 C0.15 26.49 -0.82 26.49 -1.82 26.48 C-4.19 26.31 -4.19 26.31 -5.19 25.31 C-5.44 21.51 -5.37 17.69 -5.38 13.88 C-5.39 12.8 -5.4 11.72 -5.41 10.62 C-5.41 9.59 -5.42 8.56 -5.42 7.5 C-5.42 6.56 -5.43 5.61 -5.43 4.64 C-5.03 0.79 -3.71 0.36 0 0 Z " fill="#FCFBFB" transform="translate(256.1875,814.6875)"/>
<path d="M0 0 C1.7 0.95 3.36 1.98 5.01 3.03 C1.48 5.99 -2.08 8.33 -6.11 10.56 C-6.68 10.88 -7.25 11.19 -7.84 11.52 C-9.05 12.19 -10.26 12.85 -11.47 13.52 C-13.29 14.52 -15.11 15.53 -16.94 16.54 C-22.89 19.83 -28.87 23.05 -34.99 26.03 C-31.7 14.7 -23.1 5.31 -12.93 -0.47 C-8.31 -2.57 -4.59 -2.24 0 0 Z " fill="#9E2B13" transform="translate(314.9921875,680.97265625)"/>
<path d="M0 0 C0.91 0.33 1.83 0.65 2.77 0.99 C2.85 4.05 2.91 7.11 2.95 10.18 C2.98 11.04 3 11.9 3.03 12.79 C3.09 17.68 3.03 21.07 -0.23 24.99 C-3.73 27.32 -5.13 27.49 -9.23 26.99 C-11.61 24.99 -11.61 24.99 -13.23 22.99 C-10.71 21.73 -9.38 22.07 -6.61 22.43 C-5.79 22.53 -4.97 22.63 -4.13 22.73 C-3.51 22.82 -2.88 22.9 -2.23 22.99 C-2.56 21.67 -2.89 20.35 -3.23 18.99 C-5.12 18.56 -5.12 18.56 -7.05 18.11 C-10.09 17.42 -11.54 16.78 -14.23 14.99 C-15.64 10.55 -15.55 6.82 -13.92 2.49 C-10.53 -2.54 -5.37 -1.68 0 0 Z " fill="#FCFBFA" transform="translate(297.234375,823.01171875)"/>
<path d="M0 0 C0.85 0.33 1.69 0.66 2.56 1 C2.93 20 2.93 20 -0.62 25.19 C-3.96 27.34 -5.54 27.66 -9.44 27 C-11.81 25.62 -11.81 25.62 -13.44 24 C-13.44 23.34 -13.44 22.68 -13.44 22 C-10.47 22.33 -7.5 22.66 -4.44 23 C-3.78 21.68 -3.12 20.36 -2.44 19 C-3.65 18.94 -4.87 18.88 -6.12 18.81 C-9.42 18.38 -10.57 17.91 -13.44 15.94 C-15.71 12.6 -16.06 10.87 -15.8 6.93 C-15.27 4.14 -14.18 2.22 -12.44 0 C-8.42 -2.01 -4.18 -1.22 0 0 Z " fill="#FCFCFC" transform="translate(531.4375,823)"/>
<path d="M0 0 C1.08 -0 2.17 -0.01 3.29 -0.01 C5.94 0.12 5.94 0.12 6.94 1.12 C7.25 4.89 7.22 8.66 7.25 12.44 C7.28 13.5 7.31 14.56 7.34 15.65 C7.35 16.67 7.35 17.69 7.36 18.74 C7.38 19.67 7.39 20.61 7.41 21.58 C6.8 24.88 5.54 26.06 2.94 28.12 C0.46 28.62 0.46 28.62 -2.12 28.56 C-2.98 28.56 -3.84 28.56 -4.72 28.56 C-7.45 28.05 -8.35 27.25 -10.06 25.12 C-9.73 24.13 -9.4 23.14 -9.06 22.12 C-8.12 22.27 -8.12 22.27 -7.16 22.41 C-5.94 22.58 -5.94 22.58 -4.69 22.75 C-3.88 22.87 -3.06 22.98 -2.23 23.1 C-1.51 23.11 -0.8 23.12 -0.06 23.12 C0.6 22.47 1.26 21.8 1.94 21.12 C-0.2 19.9 -0.2 19.9 -3.44 19.88 C-7.06 19.12 -7.06 19.12 -9.5 17 C-11.48 13.35 -11.57 11.23 -11.06 7.12 C-8.41 0.61 -6.82 -0.02 0 0 Z M-1.06 5.12 C-3.35 9.94 -3.35 9.94 -4.06 15.12 C-2.4 15.17 -0.73 15.17 0.94 15.12 C2.14 14.14 2.14 14.14 2.04 12.28 C2.02 11.55 2.01 10.82 2 10.06 C1.98 8.76 1.96 7.46 1.94 6.12 C0.95 5.79 -0.04 5.47 -1.06 5.12 Z M-7.06 11.12 C-6.06 13.12 -6.06 13.12 -6.06 13.12 Z " fill="#FDFDFD" transform="translate(583.0625,821.875)"/>
<path d="M0 0 C2.19 0.94 2.19 0.94 4.19 2.94 C5.26 10.32 3.99 15.63 0.19 21.94 C-7.05 21.33 -13.81 19.82 -20.81 17.94 C-16.75 11.28 -8.5 -0.19 0 0 Z " fill="#81240F" transform="translate(445.8125,672.0625)"/>
<path d="M0 0 C-0.81 5.09 -2.84 9.39 -4.94 14.06 C-6.16 16.9 -6.16 16.9 -5.97 19.71 C-5.98 20.46 -5.99 21.22 -6 22 C-10.92 26.5 -15.48 28.01 -22 29 C-22.33 28.01 -22.66 27.02 -23 26 C-22.55 25.44 -22.1 24.88 -21.64 24.3 C-19.4 21.15 -19.2 17.99 -18.81 14.25 C-18.73 13.55 -18.65 12.86 -18.56 12.14 C-18.37 10.43 -18.18 8.71 -18 7 C-17.34 7.66 -16.68 8.32 -16 9 C-15.23 8.43 -14.46 7.87 -13.66 7.29 C-12.66 6.55 -11.66 5.82 -10.62 5.06 C-9.63 4.33 -8.63 3.6 -7.6 2.85 C-3.59 0 -3.59 0 0 0 Z " fill="#BE3517" transform="translate(552,823)"/>
<path d="M0 0 C2.61 2.47 4.78 4.62 6.56 7.75 C7.77 10.18 7.77 10.18 10.09 10.64 C10.72 10.76 11.35 10.88 12 11 C12.47 10.28 12.94 9.56 13.43 8.81 C14.05 7.88 14.67 6.96 15.31 6 C16.23 4.61 16.23 4.61 17.18 3.19 C17.78 2.47 18.38 1.74 19 1 C19.99 1 20.98 1 22 1 C23 4 23.12 5.97 23.1 9.11 C23.09 10.09 23.09 11.07 23.09 12.08 C23.08 13.11 23.07 14.13 23.06 15.19 C23.06 16.22 23.05 17.26 23.05 18.33 C23.04 20.88 23.02 23.44 23 26 C21.68 25.67 20.36 25.34 19 25 C19 19.72 19 14.44 19 9 C16.16 11.84 14.17 14.64 12 18 C9.28 17.32 7.48 16.67 5.81 14.34 C4.83 12.59 3.91 10.79 3 9 C2.67 8.67 2.34 8.34 2 8 C2 13.94 2 19.88 2 26 C0.68 25.67 -0.64 25.34 -2 25 C-2.06 21.21 -2.09 17.42 -2.12 13.62 C-2.14 12.54 -2.16 11.46 -2.18 10.35 C-2.18 9.32 -2.19 8.29 -2.2 7.23 C-2.21 6.27 -2.22 5.32 -2.23 4.34 C-2 2 -2 2 0 0 Z " fill="#FCFBFB" transform="translate(368,815)"/>
<path d="M0 0 C3 1 3 1 4.26 3.09 C4.66 3.98 5.07 4.88 5.48 5.8 C5.92 6.78 6.36 7.76 6.82 8.76 C7.5 10.3 7.5 10.3 8.19 11.88 C8.88 13.4 8.88 13.4 9.59 14.96 C13 22.58 13 22.58 13 26 C11.12 25.69 11.12 25.69 9 25 C8.34 24.01 7.68 23.02 7 22 C3.87 21.63 3.87 21.63 0.38 21.81 C-0.81 21.84 -2 21.87 -3.23 21.89 C-4.6 21.95 -4.6 21.95 -6 22 C-6.66 23.32 -7.32 24.64 -8 26 C-8.99 25.67 -9.98 25.34 -11 25 C-4.7 4.7 -4.7 4.7 0 0 Z " fill="#FCFCFC" transform="translate(557,815)"/>
<path d="M0 0 C0.66 0 1.32 0 2 0 C2 0.66 2 1.32 2 2 C2.62 1.86 3.24 1.71 3.88 1.56 C12.02 -0.14 19.72 -0.2 28 0 C27.67 2.31 27.34 4.62 27 7 C26.39 7.04 25.77 7.07 25.14 7.11 C24.33 7.18 23.52 7.24 22.69 7.31 C21.89 7.37 21.09 7.43 20.26 7.49 C17.55 8.1 16.64 8.78 15 11 C14.35 13.08 14 15.12 13.62 17.26 C13.42 17.83 13.21 18.41 13 19 C12.01 19.33 11.02 19.66 10 20 C5.72 13.65 2.79 7.12 0 0 Z " fill="#BE3517" transform="translate(559,815)"/>
<path d="M0 0 C0.66 0.33 1.32 0.66 2 1 C1.42 6.39 0.12 11.06 -1.81 16.12 C-2.06 16.81 -2.31 17.5 -2.56 18.21 C-4.13 22.39 -5.8 25.78 -9 29 C-12.62 29.5 -12.62 29.5 -16 29 C-16.66 28.01 -17.32 27.02 -18 26 C-15.38 24.25 -13.96 23.61 -11 23 C-11.86 17.7 -13.92 13.01 -15.94 8.06 C-17 5 -17 5 -17 1 C-15.14 1.25 -15.14 1.25 -13 2 C-11.73 3.78 -11.73 3.78 -10.75 5.94 C-10.41 6.65 -10.08 7.36 -9.73 8.09 C-9 10 -9 10 -9 12 C-8.01 11.67 -7.02 11.34 -6 11 C-4.83 8.71 -4.83 8.71 -3.94 6 C-2.21 1.1 -2.21 1.1 0 0 Z " fill="#FDFDFD" transform="translate(672,821)"/>
<path d="M0 0 C1.32 0.9 2.63 1.82 3.94 2.75 C4.67 3.26 5.4 3.77 6.15 4.3 C8.31 6.29 8.82 7.08 9 10 C7.37 12.2 7.37 12.2 4.94 14.55 C4.08 15.39 3.22 16.24 2.33 17.11 C1.42 17.98 0.5 18.85 -0.44 19.75 C-1.35 20.64 -2.26 21.53 -3.2 22.44 C-5.45 24.64 -7.72 26.82 -10 29 C-10.66 28.34 -11.32 27.68 -12 27 C-11.85 20.99 -8.69 15.9 -6 10.69 C-5.54 9.77 -5.07 8.85 -4.59 7.9 C-1.17 1.17 -1.17 1.17 0 0 Z " fill="#9F2D15" transform="translate(491,746)"/>
<path d="M0 0 C3.29 2.94 3.96 4.37 4.25 8.81 C4.17 9.86 4.09 10.92 4 12 C-0.29 12 -4.58 12 -9 12 C-9 12.66 -9 13.32 -9 14 C-8.37 14.06 -7.75 14.12 -7.1 14.18 C-6.28 14.27 -5.47 14.35 -4.62 14.44 C-3.41 14.56 -3.41 14.56 -2.16 14.68 C0 15 0 15 2 16 C2 16.99 2 17.98 2 19 C-1.23 20.62 -4.5 20.43 -8 20 C-11.5 18.69 -11.5 18.69 -14 16 C-14.81 12.19 -14.77 8.81 -14 5 C-10.03 -0.36 -6.43 -1.84 0 0 Z M-9 5 C-9 5.99 -9 6.98 -9 8 C-6.03 8 -3.06 8 0 8 C-1.28 5.44 -1.28 5.44 -3 3 C-6.18 2.72 -6.18 2.72 -9 5 Z " fill="#FDFDFD" transform="translate(607,822)"/>
<path d="M0 0 C3.05 2.81 3.93 4.4 4.39 8.55 C4.32 10.41 4.32 10.41 4.25 12.31 C4.21 13.57 4.18 14.82 4.14 16.11 C4.07 17.54 4.07 17.54 4 19 C1.92 19.08 -0.17 19.14 -2.25 19.19 C-3.99 19.24 -3.99 19.24 -5.77 19.29 C-9.24 18.98 -10.59 18.48 -13 16 C-13.44 13.44 -13.44 13.44 -13 11 C-7.81 7.54 -6.22 6.83 0 8 C-0.33 6.35 -0.66 4.7 -1 3 C-5.45 3.5 -5.45 3.5 -10 4 C-10 3.01 -10 2.02 -10 1 C-6.87 -0.57 -3.37 -0.85 0 0 Z " fill="#FCFBFB" transform="translate(407,822)"/>
<path d="M0 0 C3.05 2.81 3.93 4.4 4.39 8.55 C4.32 10.41 4.32 10.41 4.25 12.31 C4.21 13.57 4.18 14.82 4.14 16.11 C4.07 17.54 4.07 17.54 4 19 C1.92 19.08 -0.17 19.14 -2.25 19.19 C-3.99 19.24 -3.99 19.24 -5.77 19.29 C-9.24 18.98 -10.59 18.47 -13 16 C-13.49 13.21 -13.41 11.72 -12 9.25 C-8.78 7.24 -5.77 7.24 -2 7 C-1.34 7.33 -0.68 7.66 0 8 C-0.33 6.35 -0.66 4.7 -1 3 C-3.64 3.33 -6.28 3.66 -9 4 C-9.33 3.01 -9.66 2.02 -10 1 C-6.87 -0.57 -3.37 -0.85 0 0 Z " fill="#FCFBFB" transform="translate(340,822)"/>
<path d="M0 0 C-4.2 4.59 -8.95 7.89 -14.12 11.31 C-14.94 11.86 -15.75 12.41 -16.58 12.98 C-17.36 13.5 -18.14 14.02 -18.95 14.55 C-19.65 15.02 -20.36 15.49 -21.09 15.98 C-23 17 -23 17 -26 17 C-27.57 9.15 -27.57 9.15 -25.56 5.12 C-17.94 -1.2 -9.34 -0.33 0 0 Z " fill="#DB3F1A" transform="translate(362,656)"/>
<path d="M0 0 C4.01 3.58 4.07 5.44 5 11 C0.38 11.33 -4.24 11.66 -9 12 C-5.96 15.04 -5.27 15.44 -1.31 16.19 C-0.1 16.43 -0.1 16.43 1.14 16.67 C1.75 16.78 2.37 16.89 3 17 C2.67 17.66 2.34 18.32 2 19 C-2.61 19.46 -6.66 19.8 -10.56 17 C-12.97 14.03 -13.4 13.44 -13.56 9.88 C-13 6 -13 6 -11.69 4.19 C-11.13 3.8 -10.57 3.4 -10 3 C-9.59 2.44 -9.18 1.89 -8.75 1.31 C-5.83 -0.88 -3.51 -0.49 0 0 Z " fill="#FCFCFC" transform="translate(464,822)"/>
<path d="M0 0 C0.66 0.33 1.32 0.66 2 1 C2 1.66 2 2.32 2 3 C2.66 3 3.32 3 4 3 C1.38 8.9 -3.72 13.41 -9 17 C-13.2 15.5 -14.89 12.83 -17 9 C-14.7 2.1 -6.83 -0.98 0 0 Z " fill="#BE3518" transform="translate(588,707)"/>
<path d="M0 0 C2.92 3.15 4.27 5.83 4.56 10.06 C4 14 4 14 1.88 17 C-1.43 19.3 -3.06 19.46 -7 19 C-8.65 15.69 -8.1 12.01 -8.06 8.38 C-8.06 7.57 -8.05 6.77 -8.05 5.95 C-8.04 3.96 -8.02 1.98 -8 0 C-4.96 -1.52 -3.21 -0.96 0 0 Z " fill="#9E2B13" transform="translate(263,819)"/>
<path d="M0 0 C1.98 0.99 1.98 0.99 4 2 C4 6.29 4 10.58 4 15 C6.96 15.32 6.96 15.32 8.61 13.69 C9.39 12.85 9.39 12.85 10.19 12 C10.98 11.16 10.98 11.16 11.79 10.31 C12.19 9.88 12.59 9.45 13 9 C14.32 9.66 15.64 10.32 17 11 C16.15 11.74 15.31 12.49 14.44 13.25 C13.63 14.16 12.83 15.07 12 16 C12.31 19.18 13.68 21.24 15.56 23.75 C16.25 24.67 16.25 24.67 16.94 25.61 C17.29 26.07 17.64 26.53 18 27 C17.01 27.33 16.02 27.66 15 28 C14.24 27.22 13.47 26.43 12.69 25.62 C10.09 22.93 10.09 22.93 7 21 C5.11 23.39 3.98 25.07 3 28 C2.01 27.67 1.02 27.34 0 27 C0 18.09 0 9.18 0 0 Z " fill="#FCFCFB" transform="translate(431,813)"/>
<path d="M0 0 C-2.86 6.34 -8.37 10.61 -13.62 15 C-14.7 15.9 -14.7 15.9 -15.79 16.81 C-18 18 -18 18 -20.77 17.69 C-21.51 17.46 -22.24 17.23 -23 17 C-22.57 15.44 -22.13 13.87 -21.69 12.31 C-21.44 11.44 -21.2 10.57 -20.95 9.68 C-19.9 6.71 -18.97 4.47 -17 2 C-14 1.07 -14 1.07 -10.56 0.69 C-8.86 0.48 -8.86 0.48 -7.13 0.26 C-4 0 -4 0 0 0 Z " fill="#000000" transform="translate(713,735)"/>
<path d="M0 0 C3.18 4.07 3.33 7.24 3.19 12.31 C3.16 13.57 3.13 14.82 3.11 16.11 C3.07 17.07 3.04 18.02 3 19 C2.01 19 1.02 19 0 19 C-1.63 15.74 -1.34 12.14 -1.52 8.53 C-1.68 7.7 -1.84 6.86 -2 6 C-4.82 3.72 -4.82 3.72 -8 4 C-8.66 8.95 -9.32 13.9 -10 19 C-10.99 19 -11.98 19 -13 19 C-14.59 15.81 -14.1 12.37 -14.06 8.88 C-14.06 8.12 -14.05 7.37 -14.05 6.59 C-14.04 4.73 -14.02 2.86 -14 1 C-13.22 0.85 -12.43 0.7 -11.62 0.54 C-9.08 0.06 -9.08 0.06 -7 -0.62 C-4.29 -1.13 -2.6 -0.93 0 0 Z " fill="#FDFDFD" transform="translate(628,822)"/>
<path d="M0 0 C1.94 2.06 1.94 2.06 3 4 C-1.52 5.13 -1.52 5.13 -4.06 4.44 C-6.05 3.83 -6.05 3.83 -8.19 4.56 C-10.3 5.95 -10.3 5.95 -10.88 9 C-10.92 9.99 -10.96 10.98 -11 12 C-9.2 14.24 -9.2 14.24 -6.69 14.16 C-5.8 14.13 -4.91 14.1 -4 14.06 C0.8 13.9 0.8 13.9 3 15 C1.25 18.88 1.25 18.88 -1 20 C-7.1 20.51 -10.11 20.06 -15 16 C-16.53 12.94 -16.23 10.38 -16 7 C-14.59 3.54 -13.34 2.23 -10.25 0.12 C-6.29 -1.25 -4.02 -1.14 0 0 Z " fill="#FDFDFD" transform="translate(650,822)"/>
<path d="M0 0 C-1.58 3.78 -3.95 6.29 -6.81 9.19 C-7.66 10.07 -8.52 10.95 -9.39 11.86 C-12.08 14.07 -13.59 14.69 -17 15 C-18.56 13.56 -18.56 13.56 -20 11 C-19.97 7.95 -19.53 5 -19 2 C-4.08 -1.41 -4.08 -1.41 0 0 Z " fill="#BE3517" transform="translate(411,747)"/>
<path d="M0 0 C0.99 0.66 1.98 1.32 3 2 C3.33 1.67 3.66 1.34 4 1 C5 0 5 0 7.81 -0.44 C11 0 11 0 13.38 2.19 C16.29 7.16 15.3 13.46 15 19 C13.68 18.67 12.36 18.34 11 18 C10.94 17.17 10.88 16.34 10.82 15.48 C10.73 14.39 10.65 13.31 10.56 12.19 C10.48 11.11 10.4 10.03 10.32 8.92 C10.1 5.94 10.1 5.94 9 3 C5.27 4.12 5.27 4.12 3 7 C2.77 9.04 2.59 11.08 2.44 13.12 C2.35 14.22 2.27 15.32 2.18 16.45 C2.12 17.29 2.06 18.13 2 19 C0.68 18.67 -0.64 18.34 -2 18 C-2.05 15.37 -2.09 12.75 -2.12 10.12 C-2.14 9.38 -2.16 8.63 -2.18 7.86 C-2.19 5.91 -2.1 3.95 -2 2 C-1.34 1.34 -0.68 0.68 0 0 Z " fill="#FDFDFD" transform="translate(498,822)"/>
<path d="M0 0 C0.66 0.33 1.32 0.66 2 1 C4.04 1.23 6.08 1.41 8.12 1.56 C9.77 1.69 9.77 1.69 11.45 1.82 C12.29 1.88 13.13 1.94 14 2 C12.45 6.21 9.61 8.09 6.06 10.69 C5.26 11.29 5.26 11.29 4.43 11.91 C1.96 13.73 -0.07 15.02 -3 16 C-3.66 15.34 -4.32 14.68 -5 14 C-4.7 9.02 -2.09 4.46 0 0 Z " fill="#030000" transform="translate(607,737)"/>
<path d="M0 0 C1.94 0.31 1.94 0.31 4 1 C4.33 1.99 4.66 2.98 5 4 C7 5.21 7 5.21 9 6 C9 6.66 9 7.32 9 8 C7.35 8 5.7 8 4 8 C4.01 11.75 4.14 15.34 5 19 C7.87 21.32 7.87 21.32 11 22 C10.67 22.66 10.34 23.32 10 24 C6.66 24.3 4.59 24.33 1.62 22.69 C-0.97 18.39 -0.3 13.9 0 9 C-0.66 9 -1.32 9 -2 9 C-2.33 8.01 -2.66 7.02 -3 6 C-2.01 5.67 -1.02 5.34 0 5 C0 3.35 0 1.7 0 0 Z " fill="#FCFBFB" transform="translate(474,817)"/>
<path d="M0 0 C0.99 0.33 1.98 0.66 3 1 C3.33 1.99 3.66 2.98 4 4 C5.64 5.04 7.31 6.05 9 7 C9 7.33 9 7.66 9 8 C7.35 8 5.7 8 4 8 C4 11.63 4 15.26 4 19 C5.98 19.99 7.96 20.98 10 22 C9.67 22.66 9.34 23.32 9 24 C2.6 23.64 2.6 23.64 0.12 21 C-1.13 17.64 -1.53 14.64 -1.79 11.09 C-1.94 8.81 -1.94 8.81 -3 6 C-2.01 5.67 -1.02 5.34 0 5 C0 3.35 0 1.7 0 0 Z " fill="#FDFDFD" transform="translate(315,817)"/>
<path d="M0 0 C2.44 0.88 2.44 0.88 4.44 3.88 C4.78 7.95 4.75 9.41 2.44 12.88 C-1.29 13.35 -2.35 13.01 -5.56 10.88 C-6.22 4.01 -6.22 4.01 -4.38 0.81 C-2.56 -0.12 -2.56 -0.12 0 0 Z " fill="#DB3F1A" transform="translate(291.5625,825.125)"/>
<path d="M0 0 C2.28 3.42 2.22 4.68 2.12 8.69 C2.11 9.68 2.09 10.68 2.07 11.7 C2.04 12.84 2.04 12.84 2 14 C-0.64 14 -3.28 14 -6 14 C-7.59 10.81 -7.38 7.47 -7 4 C-5.01 0.02 -4.63 0 0 0 Z " fill="#9E2B13" transform="translate(507,825)"/>
<path d="M0 0 C3.05 2.81 3.93 4.4 4.39 8.55 C4.32 10.41 4.32 10.41 4.25 12.31 C4.21 13.57 4.18 14.82 4.14 16.11 C4.07 17.54 4.07 17.54 4 19 C1.69 19 -0.62 19 -3 19 C-2.67 18.01 -2.34 17.02 -2 16 C-1.34 16 -0.68 16 0 16 C-0.35 14.93 -0.7 13.86 -1.06 12.75 C-1.92 9.32 -2.17 8.16 -1 5 C-1 4.34 -1 3.68 -1 3 C-5.45 3.5 -5.45 3.5 -10 4 C-10 3.01 -10 2.02 -10 1 C-6.87 -0.57 -3.37 -0.85 0 0 Z " fill="#FCFCFB" transform="translate(407,822)"/>
<path d="M0 0 C0.99 0.33 1.98 0.66 3 1 C3 9.91 3 18.82 3 28 C1.68 27.67 0.36 27.34 -1 27 C-1.03 22.88 -1.05 18.75 -1.06 14.62 C-1.07 13.45 -1.08 12.27 -1.09 11.06 C-1.09 9.94 -1.09 8.82 -1.1 7.66 C-1.1 6.63 -1.11 5.59 -1.11 4.52 C-1 2 -1 2 0 0 Z " fill="#FDFDFD" transform="translate(350,813)"/>
<path d="M0 0 C2.44 0.88 2.44 0.88 4.44 3.88 C4.77 7.06 4.94 9.05 3.25 11.81 C1.44 12.88 1.44 12.88 -1.12 12.62 C-3.56 11.88 -3.56 11.88 -5.56 10.88 C-5.92 3.5 -5.92 3.5 -4.38 0.81 C-2.56 -0.12 -2.56 -0.12 0 0 Z " fill="#9E2B13" transform="translate(525.5625,825.125)"/>
<path d="M0 0 C0.66 0.66 1.32 1.32 2 2 C1.2 2.3 0.41 2.61 -0.41 2.92 C-7.42 5.56 -7.42 5.56 -13.44 9.88 C-16 12 -16 12 -18.88 11.81 C-19.58 11.54 -20.28 11.28 -21 11 C-19.56 7.43 -17.84 5.89 -14.62 3.81 C-13.85 3.3 -13.08 2.79 -12.29 2.27 C-8.23 0.02 -4.62 -0.3 0 0 Z " fill="#BE3517" transform="translate(562,697)"/>
<path d="M0 0 C1.17 -0 1.17 -0 2.37 -0.01 C4.56 0.12 4.56 0.12 7.56 1.12 C7.23 2.12 6.9 3.11 6.56 4.12 C5.61 4.1 4.67 4.08 3.69 4.06 C0.66 3.9 0.66 3.9 -1.44 5.12 C-1.91 7.46 -2.26 9.82 -2.56 12.19 C-2.73 13.48 -2.9 14.77 -3.07 16.1 C-3.19 17.1 -3.31 18.1 -3.44 19.12 C-4.43 18.79 -5.42 18.47 -6.44 18.12 C-6.44 12.51 -6.44 6.9 -6.44 1.12 C-4.08 -0.05 -2.62 -0.01 0 0 Z " fill="#FBF8F8" transform="translate(422.4375,821.875)"/>
<path d="M0 0 C1.3 2.59 0.96 4.19 0.69 7.06 C0.57 8.41 0.57 8.41 0.45 9.79 C0.3 10.52 0.15 11.25 0 12 C-3.28 13.64 -6.43 12.52 -10 12 C-9.43 8.43 -8.15 6.79 -5.56 4.31 C-4.95 3.71 -4.33 3.11 -3.69 2.49 C-2 1 -2 1 0 0 Z " fill="#9E2B13" transform="translate(578,741)"/>
<path d="M0 0 C0.33 0.66 0.66 1.32 1 2 C1.66 2 2.32 2 3 2 C3 7.94 3 13.88 3 20 C1.68 19.67 0.36 19.34 -1 19 C-1.03 16.02 -1.05 13.04 -1.06 10.06 C-1.07 9.21 -1.08 8.36 -1.09 7.49 C-1.09 6.68 -1.09 5.87 -1.1 5.04 C-1.1 4.29 -1.11 3.54 -1.11 2.77 C-1 1 -1 1 0 0 Z " fill="#FDFDFD" transform="translate(489,821)"/>
<path d="M0 0 C0.66 0 1.32 0 2 0 C2.67 1.62 3.34 3.25 4 4.88 C4.56 6.23 4.56 6.23 5.12 7.62 C6 10 6 10 6 12 C3.03 12 0.06 12 -3 12 C-4.21 8.36 -3.67 7.67 -2.06 4.31 C-1.49 3.1 -1.49 3.1 -0.91 1.86 C-0.61 1.25 -0.31 0.63 0 0 Z " fill="#BE3517" transform="translate(557,821)"/>
<path d="M0 0 C0.99 0.33 1.98 0.66 3 1 C3 6.61 3 12.22 3 18 C1.68 17.67 0.36 17.34 -1 17 C-1.03 14.35 -1.05 11.71 -1.06 9.06 C-1.07 8.31 -1.08 7.55 -1.09 6.78 C-1.1 4.85 -1.05 2.92 -1 1 C-0.67 0.67 -0.34 0.34 0 0 Z " fill="#FDFDFD" transform="translate(305,823)"/>
<path d="M0 0 C1.32 0.33 2.64 0.66 4 1 C3.67 6.61 3.34 12.22 3 18 C2.01 17.67 1.02 17.34 0 17 C0 11.39 0 5.78 0 0 Z " fill="#FDFDFD" transform="translate(275,823)"/>
<path d="M0 0 C4.88 2.62 4.88 2.62 6 6 C2.12 9.61 2.12 9.61 0 11 C-2.38 10.81 -2.38 10.81 -4 10 C-2.89 6.51 -1.74 3.23 0 0 Z " fill="#81240F" transform="translate(553,737)"/>
<path d="M0 0 C3.62 -0.19 3.62 -0.19 7 0 C7.33 1.98 7.66 3.96 8 6 C7.34 6 6.68 6 6 6 C6 6.66 6 7.32 6 8 C0.25 6.38 0.25 6.38 -2 3 C-1.34 2.01 -0.68 1.02 0 0 Z " fill="#DB3F1A" transform="translate(399,832)"/>
<path d="M0 0 C1.13 0.02 2.27 0.04 3.44 0.06 C3.77 2.04 4.1 4.02 4.44 6.06 C3.78 6.06 3.12 6.06 2.44 6.06 C2.44 6.72 2.44 7.38 2.44 8.06 C0.46 7.4 -1.52 6.74 -3.56 6.06 C-3.94 4.41 -4.28 2.74 -4.56 1.06 C-3.56 0.06 -3.56 0.06 0 0 Z " fill="#DB3F1A" transform="translate(335.5625,831.9375)"/>
<path d="M0 0 C0.66 0 1.32 0 2 0 C2 0.66 2 1.32 2 2 C2.66 2 3.32 2 4 2 C4 2.66 4 3.32 4 4 C4.66 4.33 5.32 4.66 6 5 C3.69 7.31 1.38 9.62 -1 12 C-1.66 11.34 -2.32 10.68 -3 10 C-2.67 6.24 -1.88 3.26 0 0 Z " fill="#81240F" transform="translate(482,763)"/>
<path d="M0 0 C0.8 0.12 1.61 0.25 2.44 0.38 C4.44 3.38 4.44 3.38 4.44 6.38 C1.47 6.38 -1.5 6.38 -4.56 6.38 C-4.89 5.38 -5.22 4.39 -5.56 3.38 C-3.76 1.1 -2.93 0.43 0 0 Z " fill="#BE3517" transform="translate(460.5625,824.625)"/>
<path d="M0 0 C1.32 0.66 2.64 1.32 4 2 C2.68 4.97 1.36 7.94 0 11 C-3 8 -3 8 -3.38 5.5 C-2.94 2.62 -2.24 1.77 0 0 Z " fill="#BE3517" transform="translate(579,825)"/>
<path d="M0 0 C0.33 0.66 0.66 1.32 1 2 C1.66 2 2.32 2 3 2 C3.66 4.97 4.32 7.94 5 11 C3.68 11.33 2.36 11.66 1 12 C-0.26 9.48 -0.1 7.69 -0.06 4.88 C-0.05 3.96 -0.04 3.05 -0.04 2.12 C-0.02 1.42 -0.01 0.72 0 0 Z " fill="#9E2B13" transform="translate(513,829)"/>
<path d="M0 0 C0.33 0.99 0.66 1.98 1 3 C-0.65 4.65 -2.3 6.3 -4 8 C-4.99 7.67 -5.98 7.34 -7 7 C-2.25 1.12 -2.25 1.12 0 0 Z " fill="#BE3517" transform="translate(266,830)"/>
<path d="M0 0 C8.58 0 17.16 0 26 0 C26 0.33 26 0.66 26 1 C17.42 1 8.84 1 0 1 C0 0.67 0 0.34 0 0 Z " fill="#DB3F1A" transform="translate(347,478)"/>
<path d="M0 0 C2.31 0 4.62 0 7 0 C7 0.33 7 0.66 7 1 C4.69 1 2.38 1 0 1 C0 0.67 0 0.34 0 0 Z " fill="#FDFDFD" transform="translate(900,537)"/>
<path d="M0 0 C2 1 2 1 2 1 Z " fill="#FDFDFD" transform="translate(758,854)"/>
<path d="" fill="#FDFDFD" transform="translate(0,0)"/>
<path d="" fill="#FDFDFD" transform="translate(0,0)"/>
<path d="" fill="#000000" transform="translate(0,0)"/>
<path d="" fill="#DB3F1A" transform="translate(0,0)"/>
</svg>
